<svg version="1.1" id="Layer_1" xmlns="http://www.w3.org/2000/svg" xmlns:xlink="http://www.w3.org/1999/xlink" x="0px" y="0px"
	 width="100%" viewBox="0 0 1024 672" enable-background="new 0 0 1024 672" xml:space="preserve">
<path fill="#000000" opacity="1.000000" stroke="none" 
	d="
M417.339325,193.046432 
	C417.341614,197.371979 417.483276,201.211731 417.305939,205.036697 
	C417.132812,208.771133 418.868164,210.111267 422.392120,210.030823 
	C427.222992,209.920563 432.057953,209.984650 436.891174,209.986969 
	C443.210480,209.990005 443.351685,210.100449 443.353180,216.381958 
	C443.365631,268.214600 443.366608,320.047272 443.365814,371.879913 
	C443.365295,405.046143 443.358002,438.212341 443.348511,471.378571 
	C443.346619,478.063171 443.026642,478.413727 436.662964,477.093689 
	C419.965546,473.630096 403.060364,471.814087 386.061340,472.458618 
	C360.129608,473.441833 334.705292,477.306335 311.100861,489.081970 
	C306.160278,491.546661 301.502350,494.461121 297.201355,497.904388 
	C295.226593,499.485352 293.577332,499.835144 291.455109,498.131012 
	C274.384064,484.422974 254.099350,478.765747 233.050537,475.328888 
	C205.650589,470.855011 178.328110,472.275574 151.116486,477.227997 
	C145.157578,478.312469 144.697189,477.986694 144.696411,472.100555 
	C144.685165,386.768311 144.723801,301.436035 144.596710,216.104004 
	C144.589432,211.206909 146.229095,209.590378 150.946152,209.884109 
	C155.760284,210.183884 160.616699,209.760544 165.439026,209.986374 
	C169.258545,210.165237 170.911896,208.931610 170.717041,204.885544 
	C170.452820,199.398682 170.761292,193.886658 170.630966,188.389984 
	C170.556046,185.229813 171.689301,183.793610 174.984970,183.942780 
	C210.578629,185.553513 245.148956,191.418930 277.068115,208.358627 
	C282.385071,211.180359 287.379456,214.494690 291.650909,218.787659 
	C293.227142,220.371811 294.635773,221.196304 296.738678,219.363708 
	C315.988922,202.587952 339.545288,195.484909 363.718506,189.966232 
	C378.339722,186.628250 393.238037,185.026993 408.202209,184.086761 
	C417.329651,183.513245 417.328217,183.490540 417.339325,193.046432 
M336.455475,211.028549 
	C321.815125,217.199371 307.243073,223.443436 297.713531,237.214874 
	C295.799103,239.981461 293.313812,239.600159 291.538605,237.116333 
	C281.379059,222.901199 266.131470,216.475845 250.668213,210.594421 
	C231.573929,203.331940 211.680664,199.543579 191.327972,197.832306 
	C183.523544,197.176086 183.324341,196.929764 183.324142,204.571274 
	C183.322342,273.901062 183.322662,343.230865 183.323181,412.560638 
	C183.323212,417.227051 183.431992,421.896515 183.294647,426.558746 
	C183.214355,429.284668 184.215866,430.647705 186.995972,430.598969 
	C191.332581,430.522980 195.609772,431.160522 199.915283,431.569122 
	C232.886337,434.697998 263.348419,444.717712 290.316589,464.312988 
	C293.212494,466.417175 295.216400,466.525391 298.161743,464.335724 
	C327.733978,442.350586 361.460571,432.497955 397.859314,430.686432 
	C404.046783,430.378510 404.647766,429.948517 404.650543,423.674927 
	C404.664612,391.843231 404.658020,360.011505 404.658020,328.179810 
	C404.658020,286.681946 404.626282,245.184006 404.705444,203.686279 
	C404.713348,199.539429 404.012146,196.847977 398.962494,197.389236 
	C377.886566,199.648285 357.085938,203.126648 336.455475,211.028549 
z"/>
<path fill="#000000" opacity="1.000000" stroke="none" 
	d="
M572.426025,274.808899 
	C570.173889,273.076752 570.776123,270.940063 570.767700,269.020264 
	C570.713623,256.701080 570.740112,244.381500 569.921570,231.658813 
	C569.068237,233.251953 568.154968,234.816269 567.371460,236.443054 
	C562.965332,245.591888 558.511597,254.719315 554.250427,263.935577 
	C552.878479,266.902924 550.957214,268.123718 547.682678,268.129211 
	C544.305725,268.134888 542.158508,267.156647 540.650452,263.896362 
	C535.649475,253.084167 530.366577,242.402374 524.296204,231.865234 
	C524.296204,243.946503 524.361877,256.028412 524.238708,268.108429 
	C524.215210,270.416138 525.531067,273.880371 522.456482,274.716736 
	C518.517212,275.788330 514.181213,275.957611 510.199738,274.491882 
	C508.745636,273.956573 508.932373,271.911713 508.932495,270.416779 
	C508.933990,249.097549 508.990417,227.778198 508.928833,206.459183 
	C508.918121,202.754028 510.499878,201.671616 514.074280,201.621124 
	C527.196716,201.435883 527.183533,201.331696 532.882324,213.141937 
	C536.934143,221.539001 541.026123,229.916641 545.091248,238.307297 
	C545.733582,239.633072 546.149048,241.117371 547.974182,241.907425 
	C551.063538,237.994476 552.646912,233.236603 554.844055,228.839645 
	C558.639282,221.244568 562.298157,213.578735 565.862793,205.872498 
	C567.190552,203.002243 568.868652,201.524994 572.298950,201.614502 
	C588.583801,202.039337 586.022034,199.273376 586.156799,215.174088 
	C586.306335,232.827911 586.208557,250.483948 586.195312,268.139008 
	C586.190063,275.158386 586.161865,275.177856 579.339966,275.184143 
	C577.179199,275.186127 575.018372,275.053802 572.426025,274.808899 
z"/>
<path fill="#000000" opacity="1.000000" stroke="none" 
	d="
M630.999878,364.109680 
	C638.591614,343.454803 646.142944,323.196136 653.425049,302.841125 
	C654.832581,298.906555 656.821655,297.494263 661.022339,297.563141 
	C673.366638,297.765686 673.358276,297.590271 677.639832,309.042969 
	C684.859741,328.355530 692.101196,347.660034 699.315247,366.974823 
	C699.942627,368.654694 700.433655,370.385498 701.190796,372.716797 
	C695.478943,373.697510 690.236145,373.487244 685.048950,372.977112 
	C682.638062,372.740051 682.595520,370.039917 681.953186,368.257904 
	C677.726074,356.529358 679.790344,358.607361 667.712585,358.370850 
	C666.381531,358.344757 665.016663,358.557281 663.723267,358.334717 
	C654.379456,356.726837 647.914917,359.303223 646.445374,369.713379 
	C646.184082,371.564026 645.071838,373.206024 642.809937,373.199188 
	C638.202576,373.185242 633.560242,373.787811 628.974792,372.761353 
	C628.177368,369.497833 630.264160,367.156036 630.999878,364.109680 
M667.224365,343.934570 
	C669.013611,343.769104 670.882080,344.277588 673.385193,342.914398 
	C670.651489,335.098846 667.883545,327.185394 665.115540,319.271942 
	C664.714783,319.314026 664.314026,319.356110 663.913269,319.398193 
	C661.185486,327.279297 658.457703,335.160400 655.419983,343.936890 
	C659.746765,343.936890 663.033875,343.936890 667.224365,343.934570 
z"/>
<path fill="#000000" opacity="1.000000" stroke="none" 
	d="
M585.522583,356.733215 
	C588.016602,359.185974 591.056580,358.627625 593.671692,358.414032 
	C600.172668,357.882996 606.644409,358.687073 613.117249,358.317474 
	C616.547546,358.121613 618.242188,359.184784 618.327393,363.051605 
	C618.553101,373.297699 618.709961,373.300659 608.671570,373.301666 
	C597.186890,373.302826 585.700378,373.170166 574.218628,373.349640 
	C570.133667,373.413452 568.676880,372.018433 568.705933,367.865997 
	C568.857361,346.229248 568.829651,324.590668 568.727234,302.953369 
	C568.709839,299.274963 569.628296,297.519501 573.754639,297.585907 
	C586.567505,297.792023 599.387329,297.767059 612.201233,297.594910 
	C616.101929,297.542542 617.805664,298.891205 617.322815,302.797394 
	C617.262024,303.288727 617.321899,303.794922 617.325195,304.294250 
	C617.376343,312.072479 617.376343,312.080017 609.746582,312.088379 
	C603.088806,312.095673 596.429749,312.160187 589.773865,312.046173 
	C586.640320,311.992523 585.258179,313.109131 585.314453,316.407166 
	C585.546875,330.031281 583.818481,327.397125 596.220886,327.656830 
	C600.380249,327.743927 604.542969,327.727661 608.703430,327.686157 
	C611.170349,327.661560 612.358887,328.679108 612.345093,331.248474 
	C612.281372,343.093658 613.437500,341.936768 602.733459,342.022278 
	C598.239990,342.058167 593.745605,342.046936 589.252197,342.001831 
	C586.585327,341.975067 585.246826,343.084351 585.339111,345.884338 
	C585.454224,349.375946 585.407654,352.872833 585.522583,356.733215 
z"/>
<path fill="#000000" opacity="1.000000" stroke="none" 
	d="
M662.643677,272.561951 
	C662.979126,275.350433 661.185547,275.115967 659.753906,275.154846 
	C656.926453,275.231628 654.085022,275.033081 651.268860,275.228546 
	C647.919678,275.460968 646.173706,274.047058 644.981995,270.918427 
	C640.950684,260.334442 640.852966,260.371643 629.372131,260.363586 
	C628.706360,260.363129 628.040527,260.362030 627.374756,260.361176 
	C615.739380,260.346436 615.659790,260.315216 611.380737,271.242371 
	C610.328186,273.930084 608.969055,275.406342 605.950623,275.216248 
	C602.173279,274.978394 598.339233,275.569733 594.669189,274.724365 
	C593.548889,271.938812 595.063293,269.870605 595.814026,267.795197 
	C603.111877,247.620743 610.599365,227.514557 617.830505,207.316528 
	C619.340759,203.098175 621.518982,201.347839 626.191406,201.575409 
	C637.866577,202.143997 635.828918,199.712524 640.131104,211.323120 
	C647.640503,231.589798 655.071899,251.885406 662.643677,272.561951 
M623.050293,237.350037 
	C622.154663,240.143799 620.722412,242.801666 620.564087,246.417984 
	C626.020447,246.876694 631.136841,247.116226 637.004395,246.129257 
	C634.143555,238.106476 631.520630,230.750671 628.761353,223.012558 
	C627.978699,223.874802 627.663757,224.075073 627.565430,224.352219 
	C626.119263,228.426971 624.701843,232.511993 623.050293,237.350037 
z"/>
<path fill="#000000" opacity="1.000000" stroke="none" 
	d="
M792.670288,358.533813 
	C797.060852,360.208984 801.238098,360.202881 805.363770,359.582123 
	C809.646362,358.937683 812.904724,356.666046 813.546570,352.068207 
	C814.174622,347.568756 811.073364,345.399475 807.493225,344.020050 
	C801.447388,341.690613 795.124817,340.007751 789.244263,337.336121 
	C777.603943,332.047638 773.693481,320.571320 779.127258,308.994629 
	C780.957642,305.095062 783.908508,302.216858 787.553894,300.033844 
	C799.005249,293.176147 817.067322,294.585236 827.765076,303.340515 
	C826.774841,307.122803 824.198853,310.231323 822.348206,313.683228 
	C821.056335,316.092896 819.258789,314.830292 817.634949,314.052582 
	C813.094849,311.878235 808.445679,310.144409 803.296265,310.364990 
	C798.789368,310.558014 794.710815,312.073944 793.732605,316.794708 
	C792.757141,321.502228 796.726379,323.353851 800.314514,324.909943 
	C806.264221,327.490295 812.689636,328.718048 818.569763,331.589600 
	C832.469543,338.377563 832.479492,352.557343 827.512634,362.187378 
	C825.265747,366.543854 821.598389,369.431000 817.181458,371.186859 
	C803.979309,376.434937 791.208252,375.593079 778.935852,368.160522 
	C775.474670,366.064270 774.414612,364.108856 776.930176,360.236847 
	C781.653931,352.966156 781.414429,352.818024 789.133057,356.912964 
	C790.160706,357.458130 791.236023,357.913239 792.670288,358.533813 
z"/>
<path fill="#000000" opacity="1.000000" stroke="none" 
	d="
M811.000000,201.674591 
	C817.158020,201.675735 822.821106,201.820770 828.472473,201.626785 
	C832.131714,201.501175 833.723267,202.871567 833.359497,206.555023 
	C833.213013,208.038406 833.231812,209.556183 833.351562,211.044113 
	C833.616699,214.338104 832.059753,215.407059 828.915283,215.346863 
	C822.094910,215.216309 815.268799,215.400085 808.447754,215.288925 
	C805.505798,215.240997 804.217712,216.284515 804.258484,219.336624 
	C804.443359,233.202682 802.924194,230.497025 815.020813,230.795807 
	C817.016663,230.845108 819.014587,230.803116 821.011597,230.809738 
	C828.407349,230.834290 828.133484,230.846664 828.441345,238.260757 
	C828.640137,243.048218 827.133423,244.878677 822.262451,244.456421 
	C817.968079,244.084167 813.615601,244.372772 809.288879,244.389069 
	C808.292358,244.392822 806.957520,244.076263 806.354004,244.587173 
	C802.012878,248.261917 805.101929,253.212769 804.395081,257.545258 
	C803.950745,260.269012 806.014404,260.777496 808.260620,260.768097 
	C815.083496,260.739563 821.912842,260.927094 828.727112,260.680756 
	C832.800598,260.533508 834.680481,261.917419 834.240356,266.095917 
	C834.101685,267.412720 834.114624,268.765717 834.235901,270.085846 
	C834.598511,274.031281 832.766724,275.313263 828.949341,275.264801 
	C816.969421,275.112701 804.984802,275.101532 793.005371,275.273376 
	C789.006897,275.330719 787.833984,273.690094 787.855774,269.920471 
	C787.976257,249.119263 788.030090,228.316376 787.873169,207.515839 
	C787.838318,202.892258 789.512329,201.349197 794.029297,201.609756 
	C799.502563,201.925461 805.008301,201.678314 811.000000,201.674591 
z"/>
<path fill="#000000" opacity="1.000000" stroke="none" 
	d="
M709.341980,203.184723 
	C721.340576,208.007050 726.961365,217.623581 724.953857,229.394302 
	C722.869263,241.617096 714.147217,248.534760 699.892761,249.184097 
	C696.732544,249.328064 693.558289,249.353455 690.397583,249.238174 
	C687.399780,249.128845 686.218445,250.367523 686.290710,253.375763 
	C686.422729,258.870880 686.170349,264.376648 686.356750,269.868561 
	C686.484009,273.621552 685.273926,275.312744 681.249756,275.256500 
	C668.677551,275.080750 670.750305,275.888885 670.687073,264.951813 
	C670.577271,245.957611 670.833618,226.959564 670.538879,207.969299 
	C670.458435,202.787048 672.160828,201.277557 677.109619,201.603928 
	C687.713135,202.303223 698.433167,200.489014 709.341980,203.184723 
M691.645508,235.656891 
	C695.301270,235.779297 698.956665,235.742493 702.456055,234.533020 
	C706.863831,233.009628 709.142822,230.007309 709.017029,225.164749 
	C708.892212,220.358170 706.680725,217.484711 702.044312,216.181656 
	C697.792114,214.986588 693.497314,215.411407 689.206360,215.387482 
	C686.693848,215.373474 686.303711,217.073776 686.310974,219.088974 
	C686.325867,223.231445 686.464783,227.381378 686.264343,231.514252 
	C686.098938,234.922546 687.700928,235.965012 691.645508,235.656891 
z"/>
<path fill="#000000" opacity="1.000000" stroke="none" 
	d="
M732.599060,312.244324 
	C730.593262,314.369080 729.505493,326.420837 730.693970,328.451355 
	C731.641541,330.070068 733.246338,329.800568 734.694275,329.810333 
	C741.019104,329.853058 747.346313,329.927216 753.668762,329.798584 
	C757.075745,329.729279 758.295837,331.077484 758.376038,334.512787 
	C758.603943,344.271606 758.733398,344.271027 748.795776,344.282898 
	C745.300293,344.287048 741.804810,344.282562 738.309326,344.270782 
	C730.348450,344.243958 730.346924,344.241150 730.338562,351.954163 
	C730.332642,357.447052 730.175903,362.945831 730.382446,368.430817 
	C730.522522,372.152954 729.019836,373.395508 725.404968,373.336456 
	C711.614929,373.111115 713.760193,374.608795 713.684937,362.210968 
	C713.565735,342.570374 713.764954,322.927429 713.568604,303.288086 
	C713.525208,298.954559 714.772705,297.485229 719.211975,297.570587 
	C732.523193,297.826355 745.844849,297.802948 759.157288,297.579498 
	C763.467102,297.507172 765.100708,298.834778 764.965576,303.249634 
	C764.696533,312.039856 764.874512,312.047607 755.996765,312.084259 
	C748.340820,312.115845 740.684875,312.141357 732.599060,312.244324 
z"/>
<path fill="#000000" opacity="1.000000" stroke="none" 
	d="
M546.388916,358.354980 
	C548.162415,358.450317 549.493103,358.562134 550.821167,358.536072 
	C558.240173,358.390381 558.239929,358.378998 558.261169,365.670715 
	C558.283325,373.278900 558.283325,373.292053 550.549500,373.297791 
	C538.568420,373.306641 526.584595,373.147614 514.607666,373.369781 
	C510.174591,373.451996 508.863739,371.778137 508.896240,367.515594 
	C509.058685,346.217041 509.063568,324.916321 508.940063,303.617432 
	C508.914581,299.219360 510.180450,297.397278 514.930786,297.565979 
	C527.989990,298.029663 526.134033,295.946014 526.233276,309.104797 
	C526.347534,324.246735 526.271790,339.390045 526.297180,354.532745 
	C526.298828,355.508575 526.459778,356.484131 526.622070,358.307800 
	C533.119934,358.307800 539.532410,358.307800 546.388916,358.354980 
z"/>
<path fill="#000000" opacity="1.000000" stroke="none" 
	d="
M750.325195,256.606415 
	C750.085327,260.397064 752.173340,260.796631 754.809998,260.770844 
	C761.465332,260.705719 768.128540,260.930878 774.775085,260.680023 
	C778.998962,260.520538 780.569641,262.284424 780.174866,266.270752 
	C780.158569,266.435394 780.173828,266.603363 780.176392,266.769714 
	C780.306030,275.199432 780.305969,275.214447 771.701355,275.220886 
	C761.384644,275.228607 751.065613,275.075226 740.752441,275.261749 
	C736.448486,275.339600 734.517029,274.254059 734.571655,269.412231 
	C734.806274,248.615082 734.754639,227.813095 734.592346,207.014526 
	C734.559875,202.860443 735.985168,201.516800 740.071045,201.614746 
	C751.730347,201.894257 750.233215,200.618332 750.293518,211.727280 
	C750.373901,226.536316 750.316956,241.346115 750.325195,256.606415 
z"/>
<path fill="#000000" opacity="1.000000" stroke="none" 
	d="
M834.320801,428.987244 
	C834.322998,431.817902 834.432495,434.157318 834.293396,436.481903 
	C834.173340,438.488525 835.156250,441.204407 832.117126,441.871124 
	C829.290039,442.491333 826.483276,442.462646 824.530151,439.598663 
	C820.681885,433.955994 816.756470,428.365692 812.836670,422.772186 
	C812.300476,422.007050 811.613525,421.347473 810.248413,419.780334 
	C810.248413,426.105560 810.120056,431.375641 810.292786,436.635834 
	C810.411133,440.241638 809.540955,442.279846 805.349121,442.185638 
	C801.452332,442.098083 800.645569,440.196045 800.683899,436.813141 
	C800.795349,426.982666 800.648682,417.149353 800.748779,407.318634 
	C800.768738,405.360687 799.720276,402.469299 802.781860,401.909241 
	C805.632202,401.387787 808.797974,400.809235 810.955933,403.914948 
	C814.568420,409.114075 818.245911,414.268127 821.911926,419.429810 
	C822.475342,420.223114 823.123779,420.956055 824.198181,422.298096 
	C825.494812,416.789795 824.818909,411.866455 824.911621,407.014893 
	C824.979004,403.489807 825.748901,401.494354 829.983765,401.543915 
	C834.235657,401.593628 834.380066,403.874359 834.342285,406.993073 
	C834.255493,414.157623 834.318237,421.323944 834.320801,428.987244 
z"/>
<path fill="#000000" opacity="1.000000" stroke="none" 
	d="
M764.192017,402.811523 
	C775.470032,398.853943 785.225769,401.540680 790.591492,409.820862 
	C795.953308,418.095245 795.213806,429.274841 788.776672,436.175842 
	C782.711731,442.677856 775.152893,444.351105 766.901306,441.916504 
	C758.769470,439.517303 754.227234,433.423462 753.063110,425.221039 
	C751.888855,416.946960 754.344360,409.764740 761.311829,404.575439 
	C762.109192,403.981537 762.994751,403.505981 764.192017,402.811523 
M763.183777,424.963226 
	C764.989563,431.964233 770.656860,435.455994 776.869507,433.395264 
	C782.950317,431.378296 785.919312,423.770996 783.343567,416.806763 
	C781.125244,410.808624 774.905701,408.048431 769.171936,410.691193 
	C763.349060,413.375031 762.559448,418.484924 763.183777,424.963226 
z"/>
<path fill="#000000" opacity="1.000000" stroke="none" 
	d="
M551.067566,401.648315 
	C553.714478,401.649170 555.876465,401.640076 558.038269,401.653107 
	C570.053345,401.725616 577.207336,408.524841 577.970764,420.590485 
	C578.671204,431.660400 571.676392,440.406128 560.578735,441.794678 
	C556.152893,442.348419 551.618286,442.026642 547.133484,442.117645 
	C544.185181,442.177429 542.933044,440.654388 542.940613,437.808716 
	C542.968811,427.165833 542.963928,416.522827 542.979553,405.879883 
	C542.988220,399.944916 547.511169,402.094849 551.067566,401.648315 
M555.730957,433.535645 
	C564.041077,433.157776 567.901672,429.179504 567.813965,421.084320 
	C567.739380,414.200470 564.115906,410.296539 557.736084,410.006714 
	C554.689941,409.868347 552.986877,410.835815 553.053589,414.160583 
	C553.156738,419.300049 553.108643,424.442444 553.177246,429.582886 
	C553.197144,431.073120 553.251648,432.629852 555.730957,433.535645 
z"/>
<path fill="#000000" opacity="1.000000" stroke="none" 
	d="
M607.101074,409.128387 
	C607.273682,405.321625 606.091736,401.385437 611.940491,401.548920 
	C615.802612,401.656860 617.340210,402.865387 617.222595,406.763153 
	C617.021851,413.418213 617.314453,420.089508 617.067322,426.741638 
	C616.563538,440.302551 602.963013,447.558319 591.195251,440.628082 
	C587.380737,438.381653 585.171143,435.033325 584.652405,430.566223 
	C583.707703,422.430634 584.292725,414.265289 584.067444,406.116730 
	C583.971680,402.653015 585.613525,401.598236 588.958191,401.564240 
	C592.579041,401.527374 594.141174,402.781738 594.064209,406.447021 
	C593.941833,412.272247 594.001038,418.102509 594.056580,423.929932 
	C594.129089,431.526733 595.775085,433.925415 600.733643,433.861877 
	C605.434753,433.801636 607.039307,431.371887 607.094727,424.097321 
	C607.131531,419.268616 607.101501,414.439392 607.101074,409.128387 
z"/>
<path fill="#000000" opacity="1.000000" stroke="none" 
	d="
M696.175903,426.915680 
	C697.970886,431.749084 699.631287,436.219543 701.277344,440.651428 
	C694.671936,443.471985 692.062195,442.716583 689.926819,437.235291 
	C688.966858,434.771179 687.474609,433.906250 685.062317,433.923218 
	C682.736511,433.939575 680.405640,433.951935 678.085388,433.819489 
	C675.958313,433.698029 674.855652,434.536102 673.984192,436.552979 
	C671.280701,442.809723 670.349915,443.129730 663.436890,441.273621 
	C662.638184,440.116882 663.260681,439.016479 663.648071,437.962067 
	C667.598877,427.208466 671.693665,416.505920 675.487183,405.697418 
	C676.644287,402.400543 678.551758,401.517090 681.808655,401.557617 
	C684.957520,401.596771 687.108337,402.186066 688.256897,405.543365 
	C690.673645,412.607391 693.426453,419.556458 696.175903,426.915680 
M682.524048,425.597534 
	C688.593323,422.042145 681.983521,419.424835 682.662659,415.548004 
	C679.911133,417.671021 679.983582,420.004669 679.084229,421.857025 
	C677.572388,424.970917 679.214600,425.657471 682.524048,425.597534 
z"/>
<path fill="#000000" opacity="1.000000" stroke="none" 
	d="
M518.942322,411.172729 
	C517.625183,416.851196 520.262512,417.988129 525.068420,417.766602 
	C527.825317,417.639557 532.325623,415.755981 532.254089,421.618988 
	C532.224670,424.030273 531.334900,425.392456 528.736694,425.316193 
	C526.910828,425.262634 525.079285,425.397308 523.253479,425.342224 
	C520.630371,425.263123 518.644653,425.723206 518.679993,429.045410 
	C518.715393,432.368896 520.044128,433.945099 523.517822,433.662842 
	C525.828735,433.475037 528.174622,433.751251 530.493652,433.620575 
	C533.603760,433.445404 535.130127,434.602753 535.050354,437.894592 
	C534.971985,441.128418 533.400330,442.240936 530.337585,442.178009 
	C524.855164,442.065369 519.367493,442.059845 513.884888,442.161591 
	C510.597839,442.222565 508.923828,440.965271 508.944794,437.524689 
	C509.008514,427.054688 509.003510,416.584106 508.985016,406.113831 
	C508.979736,403.118134 510.014252,401.510681 513.373657,401.614105 
	C519.185181,401.793030 525.007874,401.747345 530.822388,401.627136 
	C533.798645,401.565643 535.053223,402.792358 535.034058,405.736603 
	C535.015442,408.590454 533.868164,409.931549 530.896179,410.084778 
	C526.971741,410.287079 522.942749,409.106445 518.942322,411.172729 
z"/>
<path fill="#000000" opacity="1.000000" stroke="none" 
	d="
M626.764038,432.977844 
	C619.280884,416.501740 628.871887,399.908966 645.127563,400.752777 
	C650.397400,401.026367 655.150696,402.765015 658.483032,407.445831 
	C656.047852,411.511902 653.981140,414.059540 648.711426,410.702209 
	C643.716919,407.520203 637.567688,410.461365 635.200317,416.003418 
	C631.266479,425.212616 636.597229,434.599274 645.332825,433.885101 
	C647.222778,433.730560 649.058472,433.287384 650.341248,431.934814 
	C653.877502,428.206268 655.788208,431.157135 657.833130,433.606476 
	C660.497925,436.798096 657.413696,438.079376 655.613464,439.409210 
	C646.552124,446.102875 633.618530,443.295288 626.764038,432.977844 
z"/>
<path fill="#000000" opacity="1.000000" stroke="none" 
	d="
M720.230103,416.222229 
	C720.228394,423.352814 720.095764,430.017548 720.267639,436.674377 
	C720.362549,440.348938 719.346741,442.216492 715.250854,442.188324 
	C711.325012,442.161316 710.542603,440.292969 710.609314,436.895233 
	C710.756287,429.404114 710.580566,421.907104 710.672913,414.414185 
	C710.708801,411.503052 709.663574,410.287842 706.623169,410.148895 
	C699.459961,409.821564 699.466125,409.686340 701.100769,401.754181 
	C709.842163,401.754181 718.756104,401.686035 727.668030,401.792297 
	C730.658936,401.827942 730.142944,404.324280 730.272034,406.258545 
	C730.456482,409.024078 729.093262,410.355530 726.411987,410.146667 
	C722.291870,409.825684 719.387756,410.680023 720.230103,416.222229 
z"/>
<path fill="#000000" opacity="1.000000" stroke="none" 
	d="
M746.307983,425.996826 
	C746.293335,430.479462 746.239319,434.463409 746.276550,438.446503 
	C746.311462,442.180664 743.722473,442.096008 741.138245,442.126312 
	C738.499756,442.157227 736.633240,441.514618 736.654419,438.280701 
	C736.726135,427.326019 736.761353,416.369720 736.640564,405.415924 
	C736.599243,401.673737 738.850708,401.647949 741.529846,401.622650 
	C744.332520,401.596130 746.397095,401.983154 746.324341,405.580017 
	C746.190002,412.216644 746.300171,418.858276 746.307983,425.996826 
z"/>
<path fill="#000000" opacity="1.000000" stroke="none" 
	d="
M330.854431,387.194763 
	C320.870331,385.946075 311.309357,384.705933 301.738129,383.551270 
	C297.975037,383.097321 297.236389,385.495850 297.333344,388.556091 
	C297.670502,399.196960 298.002228,409.837982 298.323853,420.479309 
	C298.363220,421.782410 298.329193,423.087708 298.329193,424.347015 
	C295.801025,425.643524 293.541138,425.192078 291.285400,424.855804 
	C291.285400,415.341980 290.692078,405.877167 291.428284,396.516907 
	C292.461029,383.386108 292.643921,383.089996 279.760803,384.392670 
	C273.152771,385.060883 266.578644,386.073486 259.996826,386.985382 
	C258.343323,387.214417 256.725708,387.461792 255.029205,386.898376 
	C253.947876,384.325165 254.842072,381.918823 255.581833,379.610962 
	C256.948547,375.347198 255.602844,372.323578 252.157486,369.631683 
	C241.002289,360.915863 229.972458,352.039520 218.900192,343.217651 
	C218.140076,342.612030 217.428589,341.945404 216.466888,341.109314 
	C218.102295,338.503357 220.844269,337.993286 223.127151,336.920715 
	C225.986237,335.577332 226.968750,333.998779 225.944183,330.647278 
	C223.671204,323.212189 221.924377,315.616241 219.766251,307.330322 
	C225.667740,307.785828 230.582703,309.830750 235.643463,311.022461 
	C243.183853,312.798065 242.890182,314.098816 245.683212,305.603027 
	C246.139954,304.213745 246.379852,302.680054 248.214294,301.375977 
	C252.224152,304.624969 255.382874,308.855927 258.930267,312.682587 
	C260.965973,314.878571 262.862610,317.204651 264.922699,319.376465 
	C266.026154,320.539795 267.202759,322.157410 269.129700,320.981354 
	C270.850555,319.931152 270.588104,318.208618 270.214539,316.498474 
	C267.908905,305.943115 265.655212,295.376343 263.338837,284.823364 
	C262.879852,282.732452 262.257538,280.680908 262.552917,278.168488 
	C266.574707,278.228241 269.863556,280.290894 273.145538,281.901978 
	C277.396515,283.988739 279.963348,282.986145 281.926392,278.881958 
	C284.872070,272.723450 287.957031,266.630463 291.059692,260.548889 
	C291.863678,258.973053 292.249664,257.027924 294.456543,256.073273 
	C297.756714,259.386993 299.094177,263.909851 301.291565,267.894012 
	C303.380859,271.682220 305.355225,275.539337 307.232635,279.437164 
	C308.863464,282.823090 311.293854,283.498993 314.623383,282.165649 
	C318.292511,280.696289 321.999756,279.322021 326.488953,277.600037 
	C326.224792,285.017395 323.953247,291.266663 322.736328,297.672119 
	C321.558380,303.872345 320.011047,310.002258 318.634552,316.164978 
	C318.216156,318.037964 318.057373,320.024506 320.018433,321.029541 
	C321.962708,322.026031 323.050842,320.197601 324.124481,319.038788 
	C329.638580,313.086823 335.086761,307.073792 340.578339,301.059814 
	C343.510834,302.755310 343.358673,305.560883 344.050568,307.774048 
	C345.186310,311.407166 347.223175,312.475128 350.803741,311.524597 
	C356.528564,310.004883 362.300323,308.661774 368.748810,307.072327 
	C368.071655,314.011749 365.841431,319.735748 364.370697,325.601746 
	C362.181488,334.333252 362.039703,334.291992 369.677551,338.991852 
	C370.226654,339.329742 370.685120,339.814880 371.219635,340.259735 
	C370.741516,343.056305 368.199432,343.799225 366.517944,345.184326 
	C357.394348,352.699646 348.351715,360.343933 338.843597,367.349945 
	C333.316742,371.422424 331.553772,375.888977 333.791931,382.273865 
	C334.569977,384.493378 335.874634,387.508972 330.854431,387.194763 
z"/>
</svg>