<svg version="1.1" id="Layer_1" xmlns="http://www.w3.org/2000/svg" xmlns:xlink="http://www.w3.org/1999/xlink" x="0px" y="0px"
	 width="100%" viewBox="0 0 1024 1024" enable-background="new 0 0 1024 1024" xml:space="preserve">
<path fill="#FFFFFF" opacity="1.000000" stroke="none" 
	d="
M669.000000,1025.000000 
	C446.000000,1025.000000 223.500000,1025.000000 1.000000,1025.000000 
	C1.000000,683.666687 1.000000,342.333344 1.000000,1.000000 
	C342.333344,1.000000 683.666687,1.000000 1025.000000,1.000000 
	C1025.000000,342.333344 1025.000000,683.666687 1025.000000,1025.000000 
	C906.500000,1025.000000 788.000000,1025.000000 669.000000,1025.000000 
M605.042236,492.107788 
	C605.042236,492.107788 605.071960,492.189636 605.666992,492.094574 
	C606.142029,491.749695 606.617065,491.404816 607.025269,491.015076 
	C607.025269,491.015076 607.035156,491.094940 607.699585,491.011993 
	C608.844482,490.357483 609.989441,489.703003 611.808777,489.002319 
	C613.563477,488.081421 615.318115,487.160522 617.693176,486.162323 
	C618.198486,485.836578 618.703796,485.510803 619.099121,485.153809 
	C619.099121,485.153809 619.124268,485.265350 619.821594,485.178253 
	C621.273071,484.501678 622.724609,483.825073 624.070740,483.114319 
	C624.070740,483.114319 624.078064,483.224823 624.787598,483.170837 
	C626.260071,482.511292 627.732483,481.851746 629.083069,481.158539 
	C629.083069,481.158539 629.103638,481.283264 629.784424,481.239716 
	C630.587524,480.884613 631.390686,480.529541 632.078735,480.141296 
	C632.078735,480.141296 632.095154,480.259857 632.889771,480.198669 
	C636.610596,479.171600 640.331482,478.144501 644.714294,477.190063 
	C645.143311,477.088074 645.572327,476.986053 646.805603,476.948700 
	C649.199707,476.614105 651.593811,476.279510 654.667542,476.045044 
	C655.119812,475.991730 655.572083,475.938416 656.928833,476.035095 
	C662.857361,476.589355 668.847900,476.777496 674.702087,477.770203 
	C689.192932,480.227386 701.741211,487.323303 714.201294,495.335785 
	C714.327759,495.246643 714.454224,495.157501 714.580750,495.068420 
	C714.366394,495.077301 714.152039,495.086182 714.327148,494.424042 
	C712.803406,492.082367 711.689697,489.290039 709.690369,487.471130 
	C695.041809,474.144379 679.569519,461.983612 661.314514,454.239014 
	C672.973877,455.735535 684.099487,458.903229 693.135498,466.737854 
	C700.093384,472.770721 706.430298,479.519836 713.036804,486.384125 
	C713.174927,486.619476 713.313049,486.854797 713.451233,487.090118 
	C713.541565,486.982452 713.722107,486.793884 713.708923,486.779175 
	C713.473694,486.517029 713.214966,486.275940 713.090393,485.234985 
	C711.350830,480.241272 709.988831,475.074921 707.799561,470.286835 
	C701.655762,456.849701 693.506958,444.911255 680.311523,436.159821 
	C669.048645,428.477417 656.728210,423.767944 642.256287,422.814667 
	C641.966187,423.167084 641.676025,423.519470 641.047607,423.256866 
	C640.173706,423.237854 639.299866,423.218811 637.691467,422.969360 
	C632.348389,422.966217 626.969971,422.570953 621.670105,423.047943 
	C612.774719,423.848541 603.929382,425.204407 594.311218,426.366455 
	C590.181213,427.526825 586.051208,428.687225 581.255554,429.839569 
	C580.834656,429.971802 580.413818,430.104065 579.252075,430.270447 
	C549.929016,439.216217 521.827026,451.249969 493.266449,464.039246 
	C486.714172,466.861481 480.163116,469.686615 473.609375,472.505493 
	C444.761383,484.913635 416.123993,497.885773 385.457458,505.424896 
	C367.868347,509.748993 350.075073,512.594666 332.096649,508.837982 
	C323.627136,507.068237 315.532898,503.502533 306.459625,500.481293 
	C311.749603,504.907379 316.610687,508.974609 321.825989,513.596680 
	C322.211670,513.759521 322.597382,513.922424 322.890381,514.032471 
	C322.890381,514.032471 322.838409,514.125610 323.093872,514.751892 
	C344.608582,532.421692 369.545441,539.227234 397.890106,538.203979 
	C400.594666,538.110046 403.299225,538.016052 406.911346,538.038025 
	C411.599335,537.661377 416.287323,537.284729 421.844727,537.009827 
	C434.566193,536.351196 447.287628,535.692566 460.741791,535.304993 
	C470.845764,537.074219 481.011414,538.555847 491.033600,540.706238 
	C498.660583,542.342651 500.650421,544.879150 501.101685,552.693359 
	C501.664825,562.443787 501.761108,572.221130 501.918701,582.916870 
	C501.918701,591.148804 501.918701,599.380676 501.918701,608.458374 
	C492.664032,593.474365 481.351440,581.767944 466.791992,572.321167 
	C448.188843,561.071777 427.870331,555.783386 406.275970,555.456848 
	C399.473755,555.353943 392.653900,556.413879 385.399902,556.981445 
	C385.399902,556.981445 384.979889,557.125488 384.154205,556.982483 
	C382.779785,557.036072 381.405334,557.089722 379.209686,557.055847 
	C370.319855,559.596069 360.082092,560.163635 352.838593,565.113159 
	C340.229523,573.729126 329.467499,585.048157 317.931183,595.234070 
	C324.523743,594.378357 330.472260,592.303223 336.587921,591.032043 
	C351.816986,587.866516 367.122131,585.067200 383.277618,582.247864 
	C410.880798,579.961731 437.373840,584.710754 463.614349,595.252197 
	C474.420746,599.692810 484.495819,605.324890 492.377930,614.131287 
	C494.683655,616.707397 496.158722,620.027039 497.348999,622.826965 
	C473.077850,606.760010 446.232544,598.323120 417.368164,595.969849 
	C385.261993,593.352234 353.967468,597.979553 323.168427,606.788818 
	C321.617218,607.232544 319.776581,607.734619 318.772400,608.844421 
	C312.895050,615.339905 307.226807,622.024658 300.676758,629.581482 
	C303.587830,629.104309 305.310822,628.840210 307.027008,628.537842 
	C329.294861,624.614624 351.454590,619.864929 373.852814,616.942505 
	C411.627869,612.013855 448.941833,614.268188 485.406403,628.570923 
	C487.111328,629.570984 488.922394,630.427734 490.502136,631.596985 
	C496.178741,635.798584 502.443695,637.359558 509.527435,637.267761 
	C519.274658,637.141541 526.323303,631.039551 535.133423,627.088623 
	C557.205505,619.726440 579.820557,615.433044 603.123413,614.877747 
	C629.555664,614.247925 655.609375,617.470337 681.483398,622.477966 
	C692.850281,624.677856 704.166687,627.139099 716.719727,629.732361 
	C710.783875,622.991760 705.843506,617.004150 700.457275,611.448669 
	C698.266602,609.189087 695.328247,607.118286 692.352966,606.241882 
	C671.695984,600.156555 650.572388,596.492249 629.053223,595.453064 
	C593.117615,593.717590 558.737671,599.220459 527.246765,617.849792 
	C524.981995,619.189575 522.381836,619.962402 519.848206,620.504028 
	C519.934631,620.181335 520.020996,619.858643 520.656799,619.204468 
	C520.837524,618.825195 521.018188,618.445862 521.119507,618.079590 
	C521.119507,618.079590 521.176453,618.136597 521.753357,617.809509 
	C528.622620,609.345947 536.908203,602.658630 546.828613,598.104431 
	C552.879456,595.326599 559.024963,592.754761 565.043091,590.068787 
	C565.043091,590.068787 565.061462,590.154419 565.806885,590.070984 
	C567.197388,589.673096 568.587891,589.275269 570.759338,588.885071 
	C600.230347,580.070984 630.009277,579.931824 660.759094,585.985291 
	C673.625000,589.221313 686.490967,592.457275 700.158386,595.894897 
	C689.484314,586.182129 679.540161,576.855896 669.241089,567.939697 
	C666.340454,565.428528 662.398743,564.119812 658.259277,561.922668 
	C645.426147,557.420593 632.113098,555.647156 618.609375,555.347168 
	C597.764282,554.884094 577.579346,557.820923 558.256287,567.950256 
	C556.771729,568.910278 555.287170,569.870239 553.947815,570.894470 
	C553.947815,570.894470 553.839539,570.778320 553.137451,570.860779 
	C542.236450,577.477661 532.584290,585.526489 524.867432,595.746582 
	C521.815857,599.788025 518.936096,603.959229 516.019226,607.523926 
	C515.968933,607.348022 515.918640,607.172119 516.037476,606.106140 
	C515.918762,603.397339 515.799988,600.688599 515.796509,597.154358 
	C515.772095,582.755371 515.747681,568.356445 515.966736,553.203369 
	C516.504028,547.895630 517.947571,543.171204 523.842224,541.255981 
	C523.842224,541.255981 523.969910,541.154663 524.631104,541.109680 
	C525.421021,540.740417 526.210938,540.371155 527.772827,539.975525 
	C532.208191,538.708496 536.643616,537.441406 541.941467,536.214355 
	C550.957275,535.504272 559.973022,534.794189 569.753296,534.356384 
	C580.243103,535.157715 590.732910,535.959045 599.906921,536.659851 
	C596.678650,529.300293 593.324219,521.652954 590.040344,513.128540 
	C589.380554,507.397705 590.777283,502.437042 595.489746,498.752533 
	C597.401794,497.257477 599.364502,495.827026 601.192932,494.426971 
	C601.192932,494.426971 601.318665,494.439087 601.924683,494.293945 
	C602.616150,493.836365 603.307556,493.378754 604.510986,492.878693 
	C604.717102,492.621735 604.923218,492.364746 605.042236,492.107788 
M616.837036,726.154785 
	C616.833191,722.421814 616.829346,718.688904 617.749817,714.674255 
	C626.856995,714.674255 635.964172,714.674255 645.244873,714.674255 
	C645.244873,710.274414 645.244873,706.401733 645.244873,702.068237 
	C635.647034,702.068237 626.412903,702.068237 617.255676,702.068237 
	C617.255676,697.698120 617.255676,693.804565 617.255676,689.475281 
	C628.016541,689.475281 638.420410,689.475281 648.672119,689.475281 
	C648.672119,685.110779 648.672119,681.194824 648.672119,677.330933 
	C633.293579,677.330933 618.244507,677.330933 603.114319,677.330933 
	C603.114319,698.102966 603.114319,718.551636 603.363708,739.841492 
	C618.592346,739.841492 633.820984,739.841492 649.341309,739.841492 
	C649.341309,735.844788 649.341309,731.969055 649.341309,727.579346 
	C638.377808,727.579346 627.625244,727.579346 616.952209,727.282104 
	C616.952209,727.282104 616.719177,727.081177 616.837036,726.154785 
M776.071289,677.042419 
	C762.623352,677.042419 749.175415,677.042419 735.564087,677.042419 
	C735.564087,698.254517 735.564087,718.986389 735.564087,739.689331 
	C740.256714,739.689331 744.642639,739.689331 749.419067,739.689331 
	C749.419067,731.392090 749.419067,723.471619 749.419067,715.205933 
	C758.445679,715.205933 767.076172,715.205933 775.653076,715.205933 
	C775.653076,710.937988 775.653076,707.039307 775.653076,702.757874 
	C766.686646,702.757874 758.086914,702.757874 748.770691,702.757874 
	C749.187439,697.952881 749.566223,693.585144 750.881042,689.369568 
	C760.029297,689.369568 769.177612,689.369568 779.184937,689.369568 
	C778.352356,684.723022 777.676208,680.949402 776.071289,677.042419 
M466.928528,740.058350 
	C481.576508,740.058350 496.224518,740.058350 510.894073,740.058350 
	C510.894073,735.916992 510.894073,732.458496 510.717712,728.121643 
	C500.157471,728.040344 489.597198,727.959045 478.684601,727.011658 
	C478.684601,723.069885 478.684601,719.128113 478.684601,714.614014 
	C488.222382,714.614014 497.437164,714.614014 506.709503,714.614014 
	C506.709503,710.270203 506.709503,706.510071 506.709503,702.202332 
	C497.263000,702.202332 488.040802,702.202332 478.894836,702.202332 
	C478.894836,697.767212 478.894836,693.895081 478.894836,689.572876 
	C489.676666,689.572876 500.084412,689.572876 510.572296,689.572876 
	C510.572296,685.203308 510.572296,681.305725 510.572296,677.085388 
	C495.502747,677.085388 480.730377,677.079590 465.958160,677.123413 
	C465.634430,677.124390 465.312439,677.692139 464.788055,678.915039 
	C464.782288,697.842590 464.750397,716.770203 464.823883,735.697449 
	C464.829346,737.103882 465.591187,738.507385 466.928528,740.058350 
M194.376114,678.896545 
	C194.341553,698.177368 194.279633,717.458374 194.346283,736.738831 
	C194.349945,737.798401 195.423035,738.854309 196.918182,740.056580 
	C200.531372,740.056580 204.144562,740.056580 208.210449,740.056580 
	C208.210449,727.222473 208.210449,714.882751 208.210449,701.140808 
	C214.974472,712.211609 220.985535,722.050049 227.200989,732.222961 
	C233.724670,721.274536 239.934937,710.852112 246.145203,700.429626 
	C246.463226,700.561462 246.781235,700.693237 247.099258,700.825012 
	C247.099258,713.752563 247.099258,726.680054 247.099258,739.784241 
	C251.799149,739.784241 256.181854,739.784241 260.569885,739.784241 
	C260.569885,718.771240 260.569885,698.050537 260.569885,677.035339 
	C256.581848,677.035339 252.917084,677.282837 249.301788,676.965942 
	C245.649429,676.645935 243.667801,677.992188 241.919220,681.235657 
	C237.306641,689.791687 232.245071,698.105652 226.967499,707.195862 
	C221.524597,697.658447 216.541946,688.884521 211.499268,680.145264 
	C210.865585,679.047058 209.914108,677.271057 209.112244,677.272339 
	C204.302887,677.280090 199.494202,677.715820 194.376114,678.896545 
M696.145508,362.034698 
	C687.679260,357.800415 679.455933,352.957214 670.694702,349.462311 
	C653.954956,342.784637 636.722229,337.890472 618.393921,337.996429 
	C608.051331,338.056244 600.058044,342.228821 595.642212,351.396027 
	C590.811768,361.423737 587.043579,371.963104 582.314453,383.493622 
	C604.883362,377.210571 625.398315,379.771210 645.803650,385.965027 
	C666.290771,392.183716 683.543884,402.492004 693.812927,422.174408 
	C693.921021,422.381622 694.375366,422.408142 694.631409,422.505127 
	C698.093079,406.613007 701.514526,390.721527 705.095764,374.866150 
	C705.343506,373.769257 706.654602,372.292236 707.685242,372.091675 
	C715.284973,370.612762 722.939148,369.413483 730.942932,368.064362 
	C730.942932,375.890594 731.155945,383.217133 730.826233,390.519165 
	C730.712219,393.043182 729.114624,395.470917 728.446899,398.009003 
	C727.967651,399.830444 727.648621,401.771515 727.716064,403.642670 
	C727.843079,407.165588 728.885315,410.740479 728.509216,414.180298 
	C727.466125,423.720032 725.889709,433.201447 724.453979,443.193329 
	C729.854919,442.618652 735.239014,442.045746 741.257751,441.405334 
	C740.295837,432.549377 739.333252,424.150970 738.491089,415.740540 
	C738.059509,411.431213 735.851746,407.171631 738.685669,402.716461 
	C739.343750,401.681854 738.101746,399.356598 737.569763,397.677277 
	C737.237488,396.628510 736.174316,395.682434 736.161926,394.681335 
	C736.049377,385.564026 736.095825,376.444733 736.095825,367.329529 
	C745.856323,365.625275 755.074585,364.015717 765.652893,362.168640 
	C763.291809,359.958282 762.121643,358.639099 760.739685,357.602173 
	C731.572388,335.717499 702.419922,313.812408 673.115601,292.112427 
	C670.956909,290.513947 667.527344,289.437134 664.929199,289.807220 
	C630.175598,294.757599 595.462646,299.994415 560.748352,305.218506 
	C558.382751,305.574493 556.087402,306.397156 553.387878,307.099396 
	C554.022278,308.212738 554.206970,308.916809 554.662964,309.281647 
	C566.754028,318.955139 578.830688,328.648376 591.073730,338.126404 
	C591.980164,338.828156 594.234436,338.255646 595.662659,337.731903 
	C600.568848,335.932709 605.347900,332.375885 610.245361,332.251831 
	C621.141846,331.975677 632.335632,332.143860 642.947815,334.347748 
	C663.330383,338.580688 682.384766,346.371246 697.221863,361.781006 
	C697.090515,361.917023 696.959167,362.053070 696.145508,362.034698 
M677.862122,419.903992 
	C678.403015,419.860474 678.943970,419.816986 679.484863,419.773499 
	C679.052368,419.447998 678.619812,419.122467 677.900696,418.188354 
	C668.271240,410.131256 657.957275,403.252655 646.076416,398.845184 
	C622.915710,390.253204 599.311707,391.583527 575.583313,395.437134 
	C568.828613,396.534149 562.119995,397.914948 554.539429,399.323730 
	C561.668213,388.145111 566.618652,377.179504 568.605652,364.983643 
	C569.939331,356.797485 571.269836,348.575775 573.342407,340.561523 
	C574.220276,337.166901 573.616455,335.549957 571.040222,333.577789 
	C562.841370,327.301300 554.918579,320.663422 546.699280,314.414825 
	C541.870544,310.743805 544.191406,306.200195 545.011902,302.095062 
	C545.282349,300.742004 548.217834,299.416260 550.138855,298.982880 
	C560.346191,296.680115 570.618347,294.665009 581.317139,292.457611 
	C582.540405,280.561615 583.767700,268.626038 585.000549,256.637238 
	C584.314331,256.637238 584.101746,256.569427 584.000427,256.646942 
	C578.709900,260.692780 573.453735,264.784058 568.134460,268.791534 
	C566.012024,270.390594 563.841919,271.964294 561.539734,273.280365 
	C551.720764,278.893463 544.640808,277.099701 539.852356,266.876038 
	C532.591980,251.374557 525.960754,235.578232 519.073059,219.902390 
	C515.318298,211.356735 511.585693,202.801315 507.422089,193.288452 
	C499.691223,212.004669 492.399872,229.668961 485.097717,247.328812 
	C482.366638,253.933823 479.848663,260.640625 476.806610,267.099976 
	C472.817139,275.571045 466.424683,277.962067 457.884949,274.016327 
	C453.239929,271.870117 448.972260,268.863770 444.659973,266.052673 
	C439.844238,262.913391 435.170837,259.555695 429.637115,255.742950 
	C432.023163,270.908813 434.205963,285.032990 436.474335,299.143463 
	C440.145416,321.979797 443.953735,344.794525 447.509979,367.648560 
	C448.247070,372.385529 449.000214,378.002533 443.755615,380.591583 
	C438.639221,383.117340 434.620453,379.438629 431.013397,376.057129 
	C430.405975,375.487701 429.802307,374.906586 429.259949,374.276611 
	C424.804169,369.101135 420.352844,363.921814 415.920044,358.726654 
	C404.807953,345.703461 393.706299,332.671356 382.600494,319.642853 
	C382.084198,319.750244 381.567902,319.857666 381.051605,319.965088 
	C381.051605,326.373871 381.267456,332.791595 381.001099,339.189270 
	C380.600250,348.816864 374.431335,354.542755 364.788361,354.192169 
	C361.174316,354.060699 357.503357,353.360199 354.011444,352.376007 
	C339.069366,348.164642 324.184418,343.750580 308.687500,339.238281 
	C309.370178,341.381592 309.835815,342.928162 310.353851,344.457031 
	C316.380096,362.242371 322.678345,379.941498 328.344727,397.840637 
	C331.608429,408.150146 327.386017,415.046570 317.067688,417.942749 
	C312.038788,419.354309 306.942169,420.524475 300.861725,422.060089 
	C325.957581,440.906494 347.725220,462.244019 373.813751,478.327545 
	C346.275330,485.966614 319.038544,491.135254 292.133728,476.212616 
	C293.039032,477.999084 294.057648,479.411255 295.238739,480.671173 
	C309.817993,496.223999 328.466583,501.494019 349.002350,501.450531 
	C371.640808,501.402588 393.267242,495.594910 414.035248,487.386169 
	C446.801727,474.434937 479.133972,460.382477 511.617218,446.718170 
	C538.132263,435.564392 564.446716,423.841644 592.709229,417.597870 
	C621.118164,411.321777 649.444519,410.272827 677.862122,419.903992 
M698.359741,727.809509 
	C703.694519,726.757202 706.765198,728.969788 707.918091,734.236450 
	C708.231567,735.668457 708.947815,737.058838 709.712585,738.327576 
	C710.146545,739.047485 711.036987,739.942810 711.750916,739.969055 
	C715.946289,740.123352 720.150208,740.044983 724.955811,740.044983 
	C715.971130,718.441711 707.325562,697.653992 698.718567,676.958923 
	C695.121094,676.958923 692.094910,677.239563 689.144165,676.887695 
	C685.478882,676.450684 683.953552,678.025146 682.700256,681.304871 
	C679.796326,688.904175 676.394836,696.312439 673.237488,703.816101 
	C668.223694,715.731384 663.244568,727.661255 658.123474,739.888794 
	C663.268677,739.888794 667.890076,739.888794 672.473694,739.888794 
	C673.605042,737.287109 674.944824,734.935181 675.651550,732.406311 
	C676.660889,728.794800 678.540955,727.412842 682.407288,727.718201 
	C687.373108,728.110413 692.393433,727.811707 698.359741,727.809509 
M287.345825,701.806274 
	C282.058380,714.408142 276.770905,727.010071 271.292419,740.067200 
	C275.805847,740.067200 279.476501,740.260071 283.107727,739.966003 
	C284.438660,739.858337 286.654755,738.757996 286.806213,737.837219 
	C288.465668,727.747559 295.283600,726.709473 303.545502,727.776978 
	C305.348724,728.009949 307.206848,727.821777 309.039703,727.820679 
	C318.320221,727.814880 318.229736,727.854797 322.072418,736.388367 
	C322.741943,737.875183 324.426941,739.726990 325.831665,739.902832 
	C329.695801,740.386658 333.660217,740.069946 338.260101,740.069946 
	C330.435669,721.483948 322.926270,703.581970 315.361176,685.703552 
	C311.604309,676.825073 311.557251,676.951965 301.891724,676.887146 
	C299.035431,676.867981 297.393951,677.527039 296.298126,680.404114 
	C293.637299,687.390137 290.596558,694.231445 287.345825,701.806274 
M355.474609,740.065002 
	C357.763702,740.065002 360.052795,740.065002 362.862122,740.065002 
	C362.862122,733.563293 362.862122,727.493713 362.862122,721.593323 
	C369.657867,721.035583 376.018555,721.052246 382.154053,719.885010 
	C391.612244,718.085693 397.836761,709.933289 398.139191,700.193176 
	C398.480774,689.193176 393.485901,680.411865 383.513824,678.731079 
	C372.205353,676.825073 360.533203,677.076782 349.184692,676.400269 
	C349.184692,698.436584 349.184692,719.164001 349.184692,740.063660 
	C351.205353,740.063660 352.859161,740.063660 355.474609,740.065002 
M809.651978,728.813660 
	C803.908386,726.839478 798.164734,724.865234 791.722534,722.650940 
	C789.812866,724.934448 787.208374,728.048828 784.619751,731.144165 
	C794.173157,739.680847 809.045410,742.972656 820.557068,739.398315 
	C828.679077,736.876526 833.358154,730.719910 833.776184,722.005005 
	C834.162903,713.944946 830.553101,708.273010 822.448975,705.121948 
	C817.352783,703.140320 812.027527,701.748657 806.807556,700.084106 
	C803.651062,699.077576 800.569153,697.775696 801.153748,693.699280 
	C801.760010,689.471191 805.214355,688.339661 808.649048,688.887634 
	C814.212341,689.775146 819.655579,691.414856 825.667358,692.861694 
	C827.331726,690.192200 829.487610,686.734253 831.860657,682.927917 
	C821.080078,676.538391 810.219910,674.150085 798.606506,678.251770 
	C791.438782,680.783325 787.054626,688.262390 787.151306,696.518127 
	C787.242065,704.270203 790.692749,709.100220 798.769714,712.093994 
	C803.904114,713.997131 809.227905,715.383179 814.408875,717.169067 
	C817.276001,718.157227 820.838135,719.641052 819.629456,723.193726 
	C818.870728,725.423645 815.662231,726.901001 813.393982,728.489014 
	C812.682251,728.987244 811.453674,728.747192 809.651978,728.813660 
M426.501587,740.072083 
	C435.590729,740.072083 444.679871,740.072083 453.714386,740.072083 
	C453.714386,735.626709 453.714386,731.870361 453.714386,727.696472 
	C443.692230,727.696472 433.937683,727.696472 423.776611,727.696472 
	C423.776611,710.687378 423.776611,694.100769 423.776611,677.332031 
	C418.976959,677.332031 414.600281,677.332031 410.247009,677.332031 
	C410.247009,698.376465 410.247009,719.103210 410.247009,740.071289 
	C415.545898,740.071289 420.524414,740.071289 426.501587,740.072083 
M562.124695,711.497437 
	C562.124695,700.093140 562.124695,688.688843 562.124695,677.408264 
	C557.275940,677.408264 553.074524,677.408264 548.866333,677.408264 
	C548.866333,698.377625 548.866333,718.964172 548.866333,739.810486 
	C563.406494,739.810486 577.777771,739.810486 592.395020,739.810486 
	C592.395020,735.830566 592.395020,732.082031 592.395020,727.828369 
	C582.334290,727.828369 572.447327,727.828369 562.124695,727.828369 
	C562.124695,722.388977 562.124695,717.442200 562.124695,711.497437 
M701.849670,786.449219 
	C701.849670,789.810364 701.849670,793.171509 701.849670,797.847290 
	C696.001099,790.577942 690.823608,784.698486 686.315063,778.344421 
	C683.280212,774.067444 679.834839,772.728210 675.068604,774.127075 
	C675.068604,786.909363 675.068604,799.607178 675.068604,812.249817 
	C677.867188,812.249817 680.309937,812.249817 683.281616,812.249817 
	C683.281616,804.181458 683.281616,796.365662 683.281616,787.639160 
	C689.306824,795.240295 694.903625,801.840942 699.943237,808.842529 
	C702.679993,812.644836 705.721863,813.213501 709.783691,812.017822 
	C709.783691,799.285095 709.783691,786.701233 709.783691,773.912231 
	C707.138062,773.912231 704.696472,773.912231 701.846313,773.912231 
	C701.846313,777.886658 701.846313,781.680176 701.849670,786.449219 
M619.834106,800.531006 
	C624.090149,810.168274 632.889832,814.759949 643.348816,812.801025 
	C652.750061,811.040222 659.114746,803.193665 659.222595,793.231567 
	C659.329956,783.300171 653.317261,775.570679 643.745422,773.335388 
	C627.688477,769.585632 615.366333,783.064636 619.834106,800.531006 
M382.118347,776.194458 
	C373.783508,771.882812 364.911102,774.323120 355.810883,773.703979 
	C355.810883,780.406250 355.810883,786.684570 355.810883,792.962830 
	C355.810883,799.377808 355.810883,805.792847 355.810883,812.404602 
	C361.883514,812.404602 367.353119,812.628174 372.797668,812.354126 
	C381.782837,811.901672 388.352783,806.823669 390.685181,798.963684 
	C393.199677,790.490051 390.148224,781.907410 382.118347,776.194458 
M311.047333,788.505371 
	C311.047333,796.413696 311.047333,804.322021 311.047333,812.283020 
	C321.051605,812.283020 330.333588,812.283020 339.773499,812.283020 
	C339.773499,809.828369 339.773499,807.597107 339.773499,804.875122 
	C332.932709,804.875122 326.341431,804.875122 319.919312,804.875122 
	C319.919312,801.801575 319.919312,799.229858 319.919312,796.218628 
	C325.907471,796.218628 331.492828,796.218628 336.941101,796.218628 
	C336.941101,793.657043 336.941101,791.553894 336.941101,789.073059 
	C331.029938,789.073059 325.426819,789.073059 319.876892,789.073059 
	C319.876892,786.291382 319.876892,783.901550 319.876892,781.015869 
	C326.457764,781.015869 332.705017,781.015869 338.906281,781.015869 
	C338.906281,778.364624 338.906281,776.227051 338.906281,773.904663 
	C329.615021,773.904663 320.498962,773.904663 311.047363,773.904663 
	C311.047363,778.567810 311.047363,783.038025 311.047333,788.505371 
M415.140350,789.356995 
	C415.140350,784.253967 415.140350,779.150940 415.140350,774.040283 
	C412.046814,774.040283 409.475677,774.040283 406.745300,774.040283 
	C406.745300,780.487061 406.730469,786.627197 406.754425,792.767151 
	C406.761566,794.597046 406.797913,796.433472 406.957123,798.255005 
	C407.735046,807.154175 412.988922,812.460083 421.529144,813.035828 
	C431.377655,813.699646 438.362488,809.796692 439.417694,801.121033 
	C440.503967,792.190063 439.658905,783.024170 439.658905,774.086609 
	C437.219360,774.086609 434.669189,774.086609 431.969208,774.086609 
	C431.969208,775.437866 431.971497,776.430664 431.968872,777.423401 
	C431.951843,783.915222 432.131287,790.415527 431.854614,796.896301 
	C431.625916,802.253235 428.561859,805.160889 423.815613,805.265137 
	C419.133057,805.368042 416.360107,802.983154 415.541840,797.773926 
	C415.157227,795.325562 415.259918,792.800659 415.140350,789.356995 
M537.354065,801.074219 
	C533.910583,792.990417 530.268616,784.982727 527.124146,776.784241 
	C525.914551,773.630615 523.906982,773.770874 521.346924,773.570740 
	C518.522522,773.350098 517.208862,774.430420 516.190186,776.945557 
	C512.020996,787.239441 507.664398,797.457214 503.400635,807.713013 
	C502.806183,809.142822 502.344360,810.627747 501.830566,812.060852 
	C507.282928,813.270508 511.387024,812.900635 512.342896,806.826538 
	C517.033936,806.233215 521.713806,805.403381 526.422302,805.182556 
	C527.947937,805.111023 530.618469,806.336853 530.937439,807.479492 
	C532.739014,813.933472 537.248840,812.652832 542.087708,812.211975 
	C540.508972,808.421387 539.118164,805.081909 537.354065,801.074219 
M483.195404,783.015564 
	C484.091003,783.691101 484.986633,784.366577 486.071564,785.184875 
	C487.830261,782.961365 489.442963,780.922424 491.037292,778.906616 
	C481.975647,770.438538 468.211365,770.878662 460.475952,779.647278 
	C453.267151,787.818909 454.186676,801.496521 462.411377,808.435242 
	C470.810760,815.521301 484.305847,814.523804 491.107208,806.184326 
	C489.621307,804.459106 488.115723,802.711121 486.525757,800.865051 
	C485.788269,801.367981 485.247772,801.718811 484.725800,802.095276 
	C478.864319,806.321899 472.851471,806.346497 468.372650,802.157166 
	C463.925842,797.997864 463.171875,790.867798 466.632263,785.698425 
	C470.122009,780.485229 475.609528,779.414734 483.195404,783.015564 
M558.430542,781.399597 
	C558.881104,783.007019 559.696899,784.608887 559.721191,786.222717 
	C559.850708,794.826904 559.782166,803.434082 559.782166,812.221069 
	C562.731201,812.221069 565.294800,812.221069 568.323975,812.221069 
	C568.323975,801.866455 568.323975,791.811218 568.323975,781.380005 
	C572.395813,781.380005 576.005066,781.380005 579.628906,781.380005 
	C579.628906,778.599182 579.628906,776.234741 579.628906,774.078125 
	C568.868164,774.078125 558.480774,774.078125 548.225830,774.078125 
	C548.225830,776.670410 548.225830,778.897278 548.225830,781.359009 
	C551.519531,781.359009 554.493225,781.359009 558.430542,781.399597 
M594.536011,808.101196 
	C594.616516,809.513123 594.697083,810.925110 594.773376,812.262451 
	C597.717834,812.262451 600.158142,812.262451 602.758423,812.262451 
	C602.758423,799.336243 602.758423,786.667908 602.758423,774.076416 
	C599.921448,774.076416 597.374695,774.076416 594.536377,774.076416 
	C594.536377,785.338074 594.536377,796.260498 594.536011,808.101196 
z"/>
<path fill="#D4181A" opacity="1.000000" stroke="none" 
	d="
M677.498535,419.635101 
	C649.444519,410.272827 621.118164,411.321777 592.709229,417.597870 
	C564.446716,423.841644 538.132263,435.564392 511.617218,446.718170 
	C479.133972,460.382477 446.801727,474.434937 414.035248,487.386169 
	C393.267242,495.594910 371.640808,501.402588 349.002350,501.450531 
	C328.466583,501.494019 309.817993,496.223999 295.238739,480.671173 
	C294.057648,479.411255 293.039032,477.999084 292.133728,476.212616 
	C319.038544,491.135254 346.275330,485.966614 373.813751,478.327545 
	C347.725220,462.244019 325.957581,440.906494 300.861725,422.060089 
	C306.942169,420.524475 312.038788,419.354309 317.067688,417.942749 
	C327.386017,415.046570 331.608429,408.150146 328.344727,397.840637 
	C322.678345,379.941498 316.380096,362.242371 310.353851,344.457031 
	C309.835815,342.928162 309.370178,341.381592 308.687500,339.238281 
	C324.184418,343.750580 339.069366,348.164642 354.011444,352.376007 
	C357.503357,353.360199 361.174316,354.060699 364.788361,354.192169 
	C374.431335,354.542755 380.600250,348.816864 381.001099,339.189270 
	C381.267456,332.791595 381.051605,326.373871 381.051605,319.965088 
	C381.567902,319.857666 382.084198,319.750244 382.600494,319.642853 
	C393.706299,332.671356 404.807953,345.703461 415.920044,358.726654 
	C420.352844,363.921814 424.804169,369.101135 429.259949,374.276611 
	C429.802307,374.906586 430.405975,375.487701 431.013397,376.057129 
	C434.620453,379.438629 438.639221,383.117340 443.755615,380.591583 
	C449.000214,378.002533 448.247070,372.385529 447.509979,367.648560 
	C443.953735,344.794525 440.145416,321.979797 436.474335,299.143463 
	C434.205963,285.032990 432.023163,270.908813 429.637115,255.742950 
	C435.170837,259.555695 439.844238,262.913391 444.659973,266.052673 
	C448.972260,268.863770 453.239929,271.870117 457.884949,274.016327 
	C466.424683,277.962067 472.817139,275.571045 476.806610,267.099976 
	C479.848663,260.640625 482.366638,253.933823 485.097717,247.328812 
	C492.399872,229.668961 499.691223,212.004669 507.422089,193.288452 
	C511.585693,202.801315 515.318298,211.356735 519.073059,219.902390 
	C525.960754,235.578232 532.591980,251.374557 539.852356,266.876038 
	C544.640808,277.099701 551.720764,278.893463 561.539734,273.280365 
	C563.841919,271.964294 566.012024,270.390594 568.134460,268.791534 
	C573.453735,264.784058 578.709900,260.692780 584.000427,256.646942 
	C584.101746,256.569427 584.314331,256.637238 585.000549,256.637238 
	C583.767700,268.626038 582.540405,280.561615 581.317139,292.457611 
	C570.618347,294.665009 560.346191,296.680115 550.138855,298.982880 
	C548.217834,299.416260 545.282349,300.742004 545.011902,302.095062 
	C544.191406,306.200195 541.870544,310.743805 546.699280,314.414825 
	C554.918579,320.663422 562.841370,327.301300 571.040222,333.577789 
	C573.616455,335.549957 574.220276,337.166901 573.342407,340.561523 
	C571.269836,348.575775 569.939331,356.797485 568.605652,364.983643 
	C566.618652,377.179504 561.668213,388.145111 554.539429,399.323730 
	C562.119995,397.914948 568.828613,396.534149 575.583313,395.437134 
	C599.311707,391.583527 622.915710,390.253204 646.076416,398.845184 
	C657.957275,403.252655 668.271240,410.131256 677.865234,418.696777 
	C677.719299,419.348511 677.608948,419.491821 677.498535,419.635101 
z"/>
<path fill="#1331AD" opacity="1.000000" stroke="none" 
	d="
M697.637329,361.394287 
	C682.384766,346.371246 663.330383,338.580688 642.947815,334.347748 
	C632.335632,332.143860 621.141846,331.975677 610.245361,332.251831 
	C605.347900,332.375885 600.568848,335.932709 595.662659,337.731903 
	C594.234436,338.255646 591.980164,338.828156 591.073730,338.126404 
	C578.830688,328.648376 566.754028,318.955139 554.662964,309.281647 
	C554.206970,308.916809 554.022278,308.212738 553.387878,307.099396 
	C556.087402,306.397156 558.382751,305.574493 560.748352,305.218506 
	C595.462646,299.994415 630.175598,294.757599 664.929199,289.807220 
	C667.527344,289.437134 670.956909,290.513947 673.115601,292.112427 
	C702.419922,313.812408 731.572388,335.717499 760.739685,357.602173 
	C762.121643,358.639099 763.291809,359.958282 765.652893,362.168640 
	C755.074585,364.015717 745.856323,365.625275 736.095825,367.329529 
	C736.095825,376.444733 736.049377,385.564026 736.161926,394.681335 
	C736.174316,395.682434 737.237488,396.628510 737.569763,397.677277 
	C738.101746,399.356598 739.343750,401.681854 738.685669,402.716461 
	C735.851746,407.171631 738.059509,411.431213 738.491089,415.740540 
	C739.333252,424.150970 740.295837,432.549377 741.257751,441.405334 
	C735.239014,442.045746 729.854919,442.618652 724.453979,443.193329 
	C725.889709,433.201447 727.466125,423.720032 728.509216,414.180298 
	C728.885315,410.740479 727.843079,407.165588 727.716064,403.642670 
	C727.648621,401.771515 727.967651,399.830444 728.446899,398.009003 
	C729.114624,395.470917 730.712219,393.043182 730.826233,390.519165 
	C731.155945,383.217133 730.942932,375.890594 730.942932,368.064362 
	C722.939148,369.413483 715.284973,370.612762 707.685242,372.091675 
	C706.654602,372.292236 705.343506,373.769257 705.095764,374.866150 
	C701.514526,390.721527 698.093079,406.613007 694.631409,422.505127 
	C694.375366,422.408142 693.921021,422.381622 693.812927,422.174408 
	C683.543884,402.492004 666.290771,392.183716 645.803650,385.965027 
	C625.398315,379.771210 604.883362,377.210571 582.314453,383.493622 
	C587.043579,371.963104 590.811768,361.423737 595.642212,351.396027 
	C600.058044,342.228821 608.051331,338.056244 618.393921,337.996429 
	C636.722229,337.890472 653.954956,342.784637 670.694702,349.462311 
	C679.455933,352.957214 687.679260,357.800415 696.699341,362.418823 
	C697.853088,362.831207 698.452942,362.859497 698.783813,363.092163 
	C698.815918,363.746704 699.116943,364.196869 699.418030,364.647034 
	C699.623413,364.488403 699.828796,364.329803 700.034241,364.171173 
	C699.684143,363.786255 699.334045,363.401306 698.925964,362.748657 
	C698.457764,362.118713 698.047546,361.756500 697.637329,361.394287 
z"/>
<path fill="#492AD7" opacity="1.000000" stroke="none" 
	d="
M406.003784,537.922058 
	C403.299225,538.016052 400.594666,538.110046 397.453857,537.750977 
	C399.737427,535.191101 402.182953,532.476929 405.232330,531.099426 
	C412.308075,527.902893 419.675934,525.353149 426.922943,522.534912 
	C427.231506,522.414978 427.541168,522.267700 427.807678,522.074341 
	C432.196564,518.890137 435.481354,513.768311 441.861115,514.084717 
	C445.663422,507.447174 453.123474,506.454651 459.126038,503.702362 
	C469.365814,499.007172 480.326202,495.904938 490.849640,491.790253 
	C493.173035,490.881775 494.936279,488.540710 497.129883,486.632385 
	C497.842194,486.257965 498.382080,486.110504 499.244629,486.099365 
	C502.031464,485.111053 504.495667,483.986420 507.143555,482.624664 
	C508.223755,481.944366 509.120239,481.501221 510.075073,481.403229 
	C513.861694,483.190613 522.302185,479.901276 525.329163,475.774902 
	C527.582092,474.737305 529.493591,473.782776 531.479187,473.021332 
	C537.626404,470.663879 543.801819,468.380005 550.359009,466.049530 
	C569.832886,461.358093 588.914001,456.684662 608.441040,452.010559 
	C619.187561,451.420197 629.488220,450.830444 640.014404,450.436707 
	C640.818604,450.725494 641.397339,450.818207 642.333130,450.959900 
	C643.408691,451.068268 644.127197,451.127686 645.156738,451.434143 
	C650.576599,452.723206 655.685486,453.765259 660.794312,454.807312 
	C679.569519,461.983612 695.041809,474.144379 709.690369,487.471130 
	C711.689697,489.290039 712.803406,492.082367 714.146973,494.733704 
	C713.966736,495.043365 713.997070,494.992462 713.997070,494.992462 
	C701.741211,487.323303 689.192932,480.227386 674.702087,477.770203 
	C668.847900,476.777496 662.857361,476.589355 656.700195,475.697449 
	C658.000427,474.541931 659.529419,473.723999 661.877991,472.467621 
	C660.135071,471.160492 659.084839,469.706329 657.915222,469.602936 
	C649.803345,468.885773 642.613892,463.718018 633.773987,465.811768 
	C624.374146,468.038147 614.294006,467.006409 605.307983,471.683990 
	C603.483032,472.634003 601.157410,472.728912 599.034485,472.980957 
	C590.709656,473.969147 582.715027,475.864075 575.600586,480.607147 
	C574.101196,481.606689 572.322205,482.203064 570.640564,482.910248 
	C558.993164,487.808258 546.103577,488.760956 535.034668,496.073212 
	C526.191528,501.915161 515.625977,505.134613 505.888428,509.655060 
	C504.472046,510.312561 503.056274,511.517273 502.246124,512.839905 
	C498.862823,518.363281 493.047058,520.138000 487.720245,519.653748 
	C479.864075,518.939697 475.095886,525.296814 467.612671,525.134766 
	C469.062958,528.453918 470.038361,530.686340 470.601685,532.960693 
	C466.796082,533.679688 463.402588,534.356812 460.009094,535.033936 
	C447.287628,535.692566 434.566193,536.351196 421.106934,536.679871 
	C416.557129,536.234253 412.741119,535.983154 408.935791,536.094910 
	C407.941406,536.124207 406.980225,537.282349 406.003784,537.922058 
z"/>
<path fill="#1433AF" opacity="1.000000" stroke="none" 
	d="
M519.937622,620.998779 
	C522.381836,619.962402 524.981995,619.189575 527.246765,617.849792 
	C558.737671,599.220459 593.117615,593.717590 629.053223,595.453064 
	C650.572388,596.492249 671.695984,600.156555 692.352966,606.241882 
	C695.328247,607.118286 698.266602,609.189087 700.457275,611.448669 
	C705.843506,617.004150 710.783875,622.991760 716.719727,629.732361 
	C704.166687,627.139099 692.850281,624.677856 681.483398,622.477966 
	C655.609375,617.470337 629.555664,614.247925 603.123413,614.877747 
	C579.820557,615.433044 557.205505,619.726440 534.307983,627.081848 
	C527.969666,626.570496 522.456726,626.065857 516.822998,625.550232 
	C517.633911,624.420776 518.297974,623.495911 519.301575,622.378784 
	C519.776367,621.771423 519.911621,621.356384 520.010132,620.937744 
	C519.973389,620.934082 519.937622,620.998779 519.937622,620.998779 
z"/>
<path fill="#1433AF" opacity="1.000000" stroke="none" 
	d="
M484.971954,628.048889 
	C448.941833,614.268188 411.627869,612.013855 373.852814,616.942505 
	C351.454590,619.864929 329.294861,624.614624 307.027008,628.537842 
	C305.310822,628.840210 303.587830,629.104309 300.676758,629.581482 
	C307.226807,622.024658 312.895050,615.339905 318.772400,608.844421 
	C319.776581,607.734619 321.617218,607.232544 323.168427,606.788818 
	C353.967468,597.979553 385.261993,593.352234 417.368164,595.969849 
	C446.232544,598.323120 473.077850,606.760010 497.998657,622.942505 
	C499.431488,623.368713 500.214691,623.679504 500.912445,624.386292 
	C498.846893,625.192078 496.867096,625.603394 494.886566,626.011230 
	C491.581940,626.691711 488.276855,627.369812 484.971954,628.048889 
z"/>
<path fill="#512AD8" opacity="1.000000" stroke="none" 
	d="
M471.013794,532.918762 
	C470.038361,530.686340 469.062958,528.453918 467.612671,525.134766 
	C475.095886,525.296814 479.864075,518.939697 487.720245,519.653748 
	C493.047058,520.138000 498.862823,518.363281 502.246124,512.839905 
	C503.056274,511.517273 504.472046,510.312561 505.888428,509.655060 
	C515.625977,505.134613 526.191528,501.915161 535.034668,496.073212 
	C546.103577,488.760956 558.993164,487.808258 570.640564,482.910248 
	C572.322205,482.203064 574.101196,481.606689 575.600586,480.607147 
	C582.715027,475.864075 590.709656,473.969147 599.034485,472.980957 
	C601.157410,472.728912 603.483032,472.634003 605.307983,471.683990 
	C614.294006,467.006409 624.374146,468.038147 633.773987,465.811768 
	C642.613892,463.718018 649.803345,468.885773 657.915222,469.602936 
	C659.084839,469.706329 660.135071,471.160492 661.877991,472.467621 
	C659.529419,473.723999 658.000427,474.541931 656.247925,475.622498 
	C655.572083,475.938416 655.119812,475.991730 654.052368,475.719299 
	C650.958557,475.890381 648.479980,476.387207 646.001343,476.884033 
	C645.572327,476.986053 645.143311,477.088074 644.161011,476.862732 
	C639.770264,477.776886 635.932739,479.018402 632.095154,480.259888 
	C632.095154,480.259857 632.078735,480.141296 631.766785,480.107666 
	C630.671143,480.477112 629.887390,480.880219 629.103638,481.283264 
	C629.103638,481.283264 629.083069,481.158539 628.765869,481.119690 
	C626.991760,481.795471 625.534912,482.510162 624.078064,483.224854 
	C624.078064,483.224823 624.070740,483.114319 623.731079,483.086609 
	C621.968994,483.794403 620.546631,484.529877 619.124268,485.265320 
	C619.124268,485.265350 619.099121,485.153809 618.818359,485.138062 
	C618.049316,485.494751 617.561096,485.867188 617.072815,486.239624 
	C615.318115,487.160522 613.563477,488.081421 611.108521,489.015930 
	C609.283875,489.717987 608.159546,490.406464 607.035156,491.094971 
	C607.035156,491.094940 607.025269,491.015076 606.739380,491.045715 
	C605.992981,491.447449 605.532471,491.818542 605.071960,492.189636 
	C605.071960,492.189636 605.042236,492.107788 604.804688,492.065063 
	C604.378845,492.014709 604.190491,492.007080 603.659180,492.030273 
	C602.650330,492.853760 601.984497,493.646423 601.318665,494.439087 
	C601.318665,494.439087 601.192932,494.426971 600.829590,494.275848 
	C576.644165,501.421021 552.822083,508.717316 528.616089,516.021973 
	C525.258667,517.038208 522.299927,518.092468 519.308899,519.045288 
	C509.877899,522.049927 500.434753,525.016479 490.598511,528.011230 
	C483.805023,529.656006 477.409424,531.287415 471.013794,532.918762 
z"/>
<path fill="#1634AD" opacity="1.000000" stroke="none" 
	d="
M194.685303,678.008179 
	C199.494202,677.715820 204.302887,677.280090 209.112244,677.272339 
	C209.914108,677.271057 210.865585,679.047058 211.499268,680.145264 
	C216.541946,688.884521 221.524597,697.658447 226.967499,707.195862 
	C232.245071,698.105652 237.306641,689.791687 241.919220,681.235657 
	C243.667801,677.992188 245.649429,676.645935 249.301788,676.965942 
	C252.917084,677.282837 256.581848,677.035339 260.569885,677.035339 
	C260.569885,698.050537 260.569885,718.771240 260.569885,739.784241 
	C256.181854,739.784241 251.799149,739.784241 247.099258,739.784241 
	C247.099258,726.680054 247.099258,713.752563 247.099258,700.825012 
	C246.781235,700.693237 246.463226,700.561462 246.145203,700.429626 
	C239.934937,710.852112 233.724670,721.274536 227.200989,732.222961 
	C220.985535,722.050049 214.974472,712.211609 208.210449,701.140808 
	C208.210449,714.882751 208.210449,727.222473 208.210449,740.056580 
	C204.144562,740.056580 200.531372,740.056580 196.459869,739.521362 
	C196.001831,720.287354 196.034729,701.588379 195.945221,682.890076 
	C195.937424,681.260864 195.124329,679.635376 194.685303,678.008179 
z"/>
<path fill="#792FDA" opacity="1.000000" stroke="none" 
	d="
M321.471771,513.041870 
	C316.610687,508.974609 311.749603,504.907379 306.459625,500.481293 
	C315.532898,503.502533 323.627136,507.068237 332.096649,508.837982 
	C350.075073,512.594666 367.868347,509.748993 385.457458,505.424896 
	C416.123993,497.885773 444.761383,484.913635 473.609375,472.505493 
	C480.163116,469.686615 486.714172,466.861481 493.633789,464.400177 
	C492.792847,471.625732 490.248993,473.894653 483.642822,474.000092 
	C478.641663,474.079865 475.509766,477.032471 474.946991,481.913971 
	C474.786560,483.305725 474.408539,485.128906 473.446228,485.894775 
	C468.602966,489.749451 463.456635,493.221344 458.573517,497.028778 
	C455.892029,499.119598 453.520111,501.607452 450.677551,504.087494 
	C428.715820,512.433594 406.395172,518.195251 383.366791,519.675171 
	C369.390503,520.573303 355.216980,519.112183 341.181641,518.053284 
	C335.003632,517.587158 328.949036,515.484985 322.838409,514.125610 
	C322.838409,514.125610 322.890381,514.032471 322.784668,513.770630 
	C322.276550,513.353210 321.874176,513.197510 321.471771,513.041870 
z"/>
<path fill="#0C46CF" opacity="1.000000" stroke="none" 
	d="
M659.998535,585.717041 
	C630.009277,579.931824 600.230347,580.070984 570.133362,588.635498 
	C568.025391,588.975464 566.543457,589.564941 565.061462,590.154419 
	C565.061462,590.154419 565.043091,590.068787 564.707031,590.050171 
	C559.968262,591.372131 562.193542,586.827209 560.420593,585.502075 
	C555.656128,581.940918 553.933411,576.631897 553.839539,570.778320 
	C553.839539,570.778320 553.947815,570.894470 554.241577,570.911438 
	C556.006470,569.939880 557.477539,568.951355 558.948608,567.962769 
	C577.579346,557.820923 597.764282,554.884094 618.609375,555.347168 
	C632.113098,555.647156 645.426147,557.420593 658.326111,562.313110 
	C650.814697,561.103149 643.236450,559.502869 634.300171,557.615723 
	C635.740967,559.917297 636.096375,561.233582 636.926086,561.692688 
	C643.923279,565.564758 647.300842,571.931824 648.885681,579.322815 
	C649.462952,582.014832 650.539001,582.733948 653.067383,583.113831 
	C655.454285,583.472473 657.694092,584.810059 659.998535,585.717041 
z"/>
<path fill="#8030D8" opacity="1.000000" stroke="none" 
	d="
M451.008606,503.916321 
	C453.520111,501.607452 455.892029,499.119598 458.573517,497.028778 
	C463.456635,493.221344 468.602966,489.749451 473.446228,485.894775 
	C474.408539,485.128906 474.786560,483.305725 474.946991,481.913971 
	C475.509766,477.032471 478.641663,474.079865 483.642822,474.000092 
	C490.248993,473.894653 492.792847,471.625732 494.000732,464.370544 
	C521.827026,451.249969 549.929016,439.216217 579.542969,430.592285 
	C575.572815,433.638367 568.509705,433.457581 569.111633,441.252777 
	C569.128723,441.474213 568.716919,441.763702 568.461304,441.966156 
	C564.523315,445.085175 563.552185,450.963776 558.249390,452.895020 
	C557.620850,453.123962 557.514832,454.643829 557.053894,455.504883 
	C555.865540,457.724670 554.722900,459.981628 553.349976,462.085358 
	C552.405579,463.532532 551.106750,464.748322 549.966309,466.067505 
	C543.801819,468.380005 537.626404,470.663879 531.479187,473.021332 
	C529.493591,473.782776 527.582092,474.737305 524.942444,475.792053 
	C519.504395,477.673096 514.760559,479.365570 510.016724,481.058044 
	C509.120239,481.501221 508.223755,481.944366 506.769958,482.669617 
	C503.782410,483.955475 501.352203,484.959259 498.921967,485.963013 
	C498.382080,486.110504 497.842194,486.257965 496.747131,486.677155 
	C495.400970,487.160339 494.584167,487.303833 493.822998,487.593414 
	C479.547607,493.024048 465.278809,498.471985 451.008606,503.916321 
z"/>
<path fill="#0C46CF" opacity="1.000000" stroke="none" 
	d="
M385.842133,556.941650 
	C392.653900,556.413879 399.473755,555.353943 406.275970,555.456848 
	C427.870331,555.783386 448.188843,561.071777 466.652130,572.775879 
	C461.839844,577.734985 465.389160,582.950317 465.630463,587.719788 
	C465.789886,590.871216 465.891541,593.162048 463.019257,594.831116 
	C437.373840,584.710754 410.880798,579.961731 382.471191,582.151367 
	C380.788574,581.984192 379.912354,581.913574 379.036133,581.842957 
	C389.841064,577.243042 392.398468,567.294800 396.206757,556.941650 
	C392.310883,556.941650 389.076508,556.941650 385.842133,556.941650 
z"/>
<path fill="#1634AD" opacity="1.000000" stroke="none" 
	d="
M697.875000,727.810059 
	C692.393433,727.811707 687.373108,728.110413 682.407288,727.718201 
	C678.540955,727.412842 676.660889,728.794800 675.651550,732.406311 
	C674.944824,734.935181 673.605042,737.287109 672.473694,739.888794 
	C667.890076,739.888794 663.268677,739.888794 658.123474,739.888794 
	C663.244568,727.661255 668.223694,715.731384 673.237488,703.816101 
	C676.394836,696.312439 679.796326,688.904175 682.700256,681.304871 
	C683.953552,678.025146 685.478882,676.450684 689.144165,676.887695 
	C692.094910,677.239563 695.121094,676.958923 698.718567,676.958923 
	C707.325562,697.653992 715.971130,718.441711 724.955811,740.044983 
	C720.150208,740.044983 715.946289,740.123352 711.750916,739.969055 
	C711.036987,739.942810 710.146545,739.047485 709.712585,738.327576 
	C708.947815,737.058838 708.231567,735.668457 707.918091,734.236450 
	C706.765198,728.969788 703.694519,726.757202 697.875000,727.810059 
M696.951233,715.141907 
	C697.836975,715.066528 698.722778,714.991089 699.977966,714.884155 
	C697.141907,707.894775 694.506226,701.398987 691.530396,694.065125 
	C688.476013,701.554382 685.789429,708.141846 682.932068,715.147888 
	C687.806396,715.147888 691.933472,715.147888 696.951233,715.141907 
z"/>
<path fill="#1634AD" opacity="1.000000" stroke="none" 
	d="
M287.527344,701.468689 
	C290.596558,694.231445 293.637299,687.390137 296.298126,680.404114 
	C297.393951,677.527039 299.035431,676.867981 301.891724,676.887146 
	C311.557251,676.951965 311.604309,676.825073 315.361176,685.703552 
	C322.926270,703.581970 330.435669,721.483948 338.260101,740.069946 
	C333.660217,740.069946 329.695801,740.386658 325.831665,739.902832 
	C324.426941,739.726990 322.741943,737.875183 322.072418,736.388367 
	C318.229736,727.854797 318.320221,727.814880 309.039703,727.820679 
	C307.206848,727.821777 305.348724,728.009949 303.545502,727.776978 
	C295.283600,726.709473 288.465668,727.747559 286.806213,737.837219 
	C286.654755,738.757996 284.438660,739.858337 283.107727,739.966003 
	C279.476501,740.260071 275.805847,740.067200 271.292419,740.067200 
	C276.770905,727.010071 282.058380,714.408142 287.527344,701.468689 
M296.702454,714.045959 
	C301.977234,714.564026 307.252045,715.082092 313.331024,715.679199 
	C310.194489,707.908569 307.531189,701.310425 304.623138,694.105835 
	C301.846985,701.041992 299.392059,707.175537 296.702454,714.045959 
z"/>
<path fill="#1636B0" opacity="1.000000" stroke="none" 
	d="
M464.989624,677.995544 
	C465.312439,677.692139 465.634430,677.124390 465.958160,677.123413 
	C480.730377,677.079590 495.502747,677.085388 510.572296,677.085388 
	C510.572296,681.305725 510.572296,685.203308 510.572296,689.572876 
	C500.084412,689.572876 489.676666,689.572876 478.894836,689.572876 
	C478.894836,693.895081 478.894836,697.767212 478.894836,702.202332 
	C488.040802,702.202332 497.263000,702.202332 506.709503,702.202332 
	C506.709503,706.510071 506.709503,710.270203 506.709503,714.614014 
	C497.437164,714.614014 488.222382,714.614014 478.684601,714.614014 
	C478.684601,719.128113 478.684601,723.069885 479.122864,727.772095 
	C490.005432,728.688354 500.449738,728.844177 510.894073,729.000061 
	C510.894073,732.458496 510.894073,735.916992 510.894073,740.058350 
	C496.224518,740.058350 481.576508,740.058350 466.466431,739.522461 
	C466.004517,720.376038 466.031311,701.765381 465.960724,683.155151 
	C465.954193,681.434082 465.328064,679.715332 464.989624,677.995544 
z"/>
<path fill="#1636B0" opacity="1.000000" stroke="none" 
	d="
M603.114319,739.000244 
	C603.114319,718.551636 603.114319,698.102966 603.114319,677.330933 
	C618.244507,677.330933 633.293579,677.330933 648.672119,677.330933 
	C648.672119,681.194824 648.672119,685.110779 648.672119,689.475281 
	C638.420410,689.475281 628.016541,689.475281 617.255676,689.475281 
	C617.255676,693.804565 617.255676,697.698120 617.255676,702.068237 
	C626.412903,702.068237 635.647034,702.068237 645.244873,702.068237 
	C645.244873,706.401733 645.244873,710.274414 645.244873,714.674255 
	C635.964172,714.674255 626.856995,714.674255 616.911987,714.934509 
	C614.676086,719.244446 613.525452,723.280701 616.719177,727.081177 
	C616.719177,727.081177 616.952209,727.282104 617.112427,727.754395 
	C618.858765,728.486084 620.442566,728.951538 622.031494,728.969543 
	C629.189514,729.050842 636.359009,729.231384 643.504211,728.917969 
	C647.584167,728.739014 648.116272,730.559631 648.086365,733.969788 
	C648.057312,737.285217 647.720215,739.164917 643.569214,739.089355 
	C630.088196,738.843750 616.599854,738.999146 603.114319,739.000244 
z"/>
<path fill="#1634AD" opacity="1.000000" stroke="none" 
	d="
M354.993774,740.064331 
	C352.859161,740.063660 351.205353,740.063660 349.184692,740.063660 
	C349.184692,719.164001 349.184692,698.436584 349.184692,676.400269 
	C360.533203,677.076782 372.205353,676.825073 383.513824,678.731079 
	C393.485901,680.411865 398.480774,689.193176 398.139191,700.193176 
	C397.836761,709.933289 391.612244,718.085693 382.154053,719.885010 
	C376.018555,721.052246 369.657867,721.035583 362.862122,721.593323 
	C362.862122,727.493713 362.862122,733.563293 362.862122,740.065002 
	C360.052795,740.065002 357.763702,740.065002 354.993774,740.064331 
M379.636658,707.438293 
	C384.114868,704.808289 384.881073,700.599670 383.656616,696.176880 
	C382.385803,691.586731 378.615570,689.856934 374.029602,689.834290 
	C370.424744,689.816467 366.819733,689.830750 363.055969,689.830750 
	C363.055969,696.411499 363.055969,702.478271 363.055969,709.468567 
	C368.549072,708.905396 373.745300,708.372620 379.636658,707.438293 
z"/>
<path fill="#1634AD" opacity="1.000000" stroke="none" 
	d="
M810.056885,728.829346 
	C811.453674,728.747192 812.682251,728.987244 813.393982,728.489014 
	C815.662231,726.901001 818.870728,725.423645 819.629456,723.193726 
	C820.838135,719.641052 817.276001,718.157227 814.408875,717.169067 
	C809.227905,715.383179 803.904114,713.997131 798.769714,712.093994 
	C790.692749,709.100220 787.242065,704.270203 787.151306,696.518127 
	C787.054626,688.262390 791.438782,680.783325 798.606506,678.251770 
	C810.219910,674.150085 821.080078,676.538391 831.860657,682.927917 
	C829.487610,686.734253 827.331726,690.192200 825.667358,692.861694 
	C819.655579,691.414856 814.212341,689.775146 808.649048,688.887634 
	C805.214355,688.339661 801.760010,689.471191 801.153748,693.699280 
	C800.569153,697.775696 803.651062,699.077576 806.807556,700.084106 
	C812.027527,701.748657 817.352783,703.140320 822.448975,705.121948 
	C830.553101,708.273010 834.162903,713.944946 833.776184,722.005005 
	C833.358154,730.719910 828.679077,736.876526 820.557068,739.398315 
	C809.045410,742.972656 794.173157,739.680847 784.619751,731.144165 
	C787.208374,728.048828 789.812866,724.934448 791.722534,722.650940 
	C798.164734,724.865234 803.908386,726.839478 810.056885,728.829346 
z"/>
<path fill="#8D32D8" opacity="1.000000" stroke="none" 
	d="
M550.359009,466.049500 
	C551.106750,464.748322 552.405579,463.532532 553.349976,462.085358 
	C554.722900,459.981628 555.865540,457.724670 557.053894,455.504883 
	C557.514832,454.643829 557.620850,453.123962 558.249390,452.895020 
	C563.552185,450.963776 564.523315,445.085175 568.461304,441.966156 
	C568.716919,441.763702 569.128723,441.474213 569.111633,441.252777 
	C568.509705,433.457581 575.572815,433.638367 579.913391,430.575195 
	C580.413818,430.104065 580.834656,429.971802 581.801758,430.124939 
	C586.324036,429.612610 590.309082,428.853851 594.261780,427.953308 
	C594.633057,427.868652 594.800720,426.890137 595.062988,426.326630 
	C603.929382,425.204407 612.774719,423.848541 621.670105,423.047943 
	C626.969971,422.570953 632.348389,422.966217 637.921692,423.533081 
	C637.477783,425.323700 637.054688,427.353699 636.091309,427.654816 
	C624.964294,431.132416 620.003967,440.619873 613.740234,448.490173 
	C611.825195,449.663849 609.910156,450.837524 607.995117,452.011169 
	C588.914001,456.684662 569.832886,461.358093 550.359009,466.049500 
z"/>
<path fill="#3E29D4" opacity="1.000000" stroke="none" 
	d="
M450.677551,504.087524 
	C465.278809,498.471985 479.547607,493.024048 493.822998,487.593414 
	C494.584167,487.303833 495.400970,487.160339 496.574677,486.904114 
	C494.936279,488.540710 493.173035,490.881775 490.849640,491.790253 
	C480.326202,495.904938 469.365814,499.007172 459.126038,503.702362 
	C453.123474,506.454651 445.663422,507.447174 441.861115,514.084717 
	C435.481354,513.768311 432.196564,518.890137 427.807678,522.074341 
	C427.541168,522.267700 427.231506,522.414978 426.922943,522.534912 
	C419.675934,525.353149 412.308075,527.902893 405.232330,531.099426 
	C402.182953,532.476929 399.737427,535.191101 397.009949,537.665283 
	C369.545441,539.227234 344.608582,532.421692 322.966125,514.438721 
	C328.949036,515.484985 335.003632,517.587158 341.181641,518.053284 
	C355.216980,519.112183 369.390503,520.573303 383.366791,519.675171 
	C406.395172,518.195251 428.715820,512.433594 450.677551,504.087524 
z"/>
<path fill="#1433AF" opacity="1.000000" stroke="none" 
	d="
M749.945068,689.217407 
	C749.566223,693.585144 749.187439,697.952881 748.770691,702.757874 
	C758.086914,702.757874 766.686646,702.757874 775.653076,702.757874 
	C775.653076,707.039307 775.653076,710.937988 775.653076,715.205933 
	C767.076172,715.205933 758.445679,715.205933 749.419067,715.205933 
	C749.419067,723.471619 749.419067,731.392090 749.419067,739.689331 
	C744.642639,739.689331 740.256714,739.689331 735.564087,739.689331 
	C735.564087,718.986389 735.564087,698.254517 735.564087,677.042419 
	C749.175415,677.042419 762.623352,677.042419 776.534912,677.559448 
	C776.998169,679.740967 776.811829,681.430786 777.034241,683.064941 
	C777.583435,687.100220 775.871094,688.322388 771.973999,688.068665 
	C767.333069,687.766541 762.651733,687.857788 757.999146,688.051025 
	C755.302979,688.162964 752.628967,688.810730 749.945068,689.217407 
z"/>
<path fill="#3528CF" opacity="1.000000" stroke="none" 
	d="
M529.000000,516.013611 
	C552.822083,508.717316 576.644165,501.421021 600.885254,494.245941 
	C599.364502,495.827026 597.401794,497.257477 595.489746,498.752533 
	C590.777283,502.437042 589.380554,507.397705 589.629272,513.575134 
	C578.222778,516.421448 572.260925,523.896729 568.988831,534.084167 
	C559.973022,534.794189 550.957275,535.504272 541.370850,535.857056 
	C538.524963,532.437500 536.009644,529.520691 534.042236,526.272034 
	C532.076050,523.025452 530.658203,519.446716 529.000000,516.013611 
z"/>
<path fill="#0D4CD6" opacity="1.000000" stroke="none" 
	d="
M385.621033,556.961548 
	C389.076508,556.941650 392.310883,556.941650 396.206757,556.941650 
	C392.398468,567.294800 389.841064,577.243042 379.036133,581.842957 
	C379.912354,581.913574 380.788574,581.984192 382.030762,582.087830 
	C367.122131,585.067200 351.816986,587.866516 336.587921,591.032043 
	C330.472260,592.303223 324.523743,594.378357 317.931183,595.234070 
	C329.467499,585.048157 340.229523,573.729126 352.838593,565.113159 
	C360.082092,560.163635 370.319855,559.596069 379.862427,557.341064 
	C382.003418,557.459351 383.491669,557.292419 384.979889,557.125488 
	C384.979889,557.125488 385.399902,556.981445 385.621033,556.961548 
z"/>
<path fill="#0B3EC6" opacity="1.000000" stroke="none" 
	d="
M463.316803,595.041626 
	C465.891541,593.162048 465.789886,590.871216 465.630463,587.719788 
	C465.389160,582.950317 461.839844,577.734985 466.842377,573.064453 
	C481.351440,581.767944 492.664032,593.474365 501.918701,608.458374 
	C501.918701,599.380676 501.918701,591.148804 502.271637,582.148193 
	C502.624573,573.733032 502.624573,566.086609 502.624573,557.700745 
	C507.256866,559.450134 510.619904,560.720215 513.990356,562.459900 
	C514.002319,573.070068 513.936707,583.211609 514.085999,593.350037 
	C514.108887,594.900818 515.124695,596.436890 515.681274,597.979797 
	C515.799988,600.688599 515.918762,603.397339 515.548706,606.552734 
	C514.726746,606.998840 514.380432,607.058167 514.062256,606.988647 
	C510.235474,606.153442 506.830933,605.995911 503.688843,609.363647 
	C500.801361,612.458496 499.373444,615.352234 500.912537,619.519836 
	C501.400177,620.840393 500.994629,622.490784 500.997864,623.990234 
	C500.214691,623.679504 499.431488,623.368713 498.331421,623.031921 
	C496.158722,620.027039 494.683655,616.707397 492.377930,614.131287 
	C484.495819,605.324890 474.420746,599.692810 463.316803,595.041626 
z"/>
<path fill="#1433AF" opacity="1.000000" stroke="none" 
	d="
M426.002258,740.071655 
	C420.524414,740.071289 415.545898,740.071289 410.247009,740.071289 
	C410.247009,719.103210 410.247009,698.376465 410.247009,677.332031 
	C414.600281,677.332031 418.976959,677.332031 423.776611,677.332031 
	C423.776611,694.100769 423.776611,710.687378 423.776611,727.696472 
	C433.937683,727.696472 443.692230,727.696472 453.714386,727.696472 
	C453.714386,731.870361 453.714386,735.626709 453.714386,740.072083 
	C444.679871,740.072083 435.590729,740.072083 426.002258,740.071655 
z"/>
<path fill="#1331AD" opacity="1.000000" stroke="none" 
	d="
M562.124695,711.996460 
	C562.124695,717.442200 562.124695,722.388977 562.124695,727.828369 
	C572.447327,727.828369 582.334290,727.828369 592.395020,727.828369 
	C592.395020,732.082031 592.395020,735.830566 592.395020,739.810486 
	C577.777771,739.810486 563.406494,739.810486 548.866333,739.810486 
	C548.866333,718.964172 548.866333,698.377625 548.866333,677.408264 
	C553.074524,677.408264 557.275940,677.408264 562.124695,677.408264 
	C562.124695,688.688843 562.124695,700.093140 562.124695,711.996460 
z"/>
<path fill="#9E35D8" opacity="1.000000" stroke="none" 
	d="
M608.441040,452.010559 
	C609.910156,450.837524 611.825195,449.663849 613.740234,448.490173 
	C620.003967,440.619873 624.964294,431.132416 636.091309,427.654816 
	C637.054688,427.353699 637.477783,425.323700 638.288940,423.648315 
	C639.299866,423.218811 640.173706,423.237854 641.552551,423.518250 
	C642.385254,423.486786 642.713013,423.193939 643.040771,422.901123 
	C656.728210,423.767944 669.048645,428.477417 680.099731,436.508850 
	C667.260986,439.320251 656.003967,445.133057 644.845642,451.187103 
	C644.127197,451.127686 643.408691,451.068268 642.299622,450.660583 
	C641.202271,450.288422 640.495605,450.264557 639.788879,450.240692 
	C629.488220,450.830444 619.187561,451.420197 608.441040,452.010559 
z"/>
<path fill="#AE3AD6" opacity="1.000000" stroke="none" 
	d="
M645.156738,451.434143 
	C656.003967,445.133057 667.260986,439.320251 680.341797,436.779785 
	C693.506958,444.911255 701.655762,456.849701 707.799561,470.286835 
	C709.988831,475.074921 711.350830,480.241272 713.047119,485.613434 
	C713.003784,485.991882 713.043396,485.950439 713.043396,485.950439 
	C706.430298,479.519836 700.093384,472.770721 693.135498,466.737854 
	C684.099487,458.903229 672.973877,455.735535 661.054443,454.523163 
	C655.685486,453.765259 650.576599,452.723206 645.156738,451.434143 
z"/>
<path fill="#CE1A1C" opacity="1.000000" stroke="none" 
	d="
M701.848022,785.961487 
	C701.846313,781.680176 701.846313,777.886658 701.846313,773.912231 
	C704.696472,773.912231 707.138062,773.912231 709.783691,773.912231 
	C709.783691,786.701233 709.783691,799.285095 709.783691,812.017822 
	C705.721863,813.213501 702.679993,812.644836 699.943237,808.842529 
	C694.903625,801.840942 689.306824,795.240295 683.281616,787.639160 
	C683.281616,796.365662 683.281616,804.181458 683.281616,812.249817 
	C680.309937,812.249817 677.867188,812.249817 675.068604,812.249817 
	C675.068604,799.607178 675.068604,786.909363 675.068604,774.127075 
	C679.834839,772.728210 683.280212,774.067444 686.315063,778.344421 
	C690.823608,784.698486 696.001099,790.577942 701.849670,797.847290 
	C701.849670,793.171509 701.849670,789.810364 701.848022,785.961487 
z"/>
<path fill="#CE1A1C" opacity="1.000000" stroke="none" 
	d="
M619.692871,800.165833 
	C615.366333,783.064636 627.688477,769.585632 643.745422,773.335388 
	C653.317261,775.570679 659.329956,783.300171 659.222595,793.231567 
	C659.114746,803.193665 652.750061,811.040222 643.348816,812.801025 
	C632.889832,814.759949 624.090149,810.168274 619.692871,800.165833 
M637.728027,780.774841 
	C630.621887,782.307556 626.595215,787.382751 627.125671,794.138062 
	C627.618896,800.419495 632.351746,805.153015 638.368958,805.382996 
	C644.703247,805.625061 649.682678,801.279114 650.621033,794.689392 
	C651.660156,787.391602 646.622070,781.557129 637.728027,780.774841 
z"/>
<path fill="#0D4CD6" opacity="1.000000" stroke="none" 
	d="
M660.378784,585.851135 
	C657.694092,584.810059 655.454285,583.472473 653.067383,583.113831 
	C650.539001,582.733948 649.462952,582.014832 648.885681,579.322815 
	C647.300842,571.931824 643.923279,565.564758 636.926086,561.692688 
	C636.096375,561.233582 635.740967,559.917297 634.300171,557.615723 
	C643.236450,559.502869 650.814697,561.103149 658.663757,562.481567 
	C662.398743,564.119812 666.340454,565.428528 669.241089,567.939697 
	C679.540161,576.855896 689.484314,586.182129 700.158386,595.894897 
	C686.490967,592.457275 673.625000,589.221313 660.378784,585.851135 
z"/>
<path fill="#CE1A1C" opacity="1.000000" stroke="none" 
	d="
M382.429199,776.405762 
	C390.148224,781.907410 393.199677,790.490051 390.685181,798.963684 
	C388.352783,806.823669 381.782837,811.901672 372.797668,812.354126 
	C367.353119,812.628174 361.883514,812.404602 355.810883,812.404602 
	C355.810883,805.792847 355.810883,799.377808 355.810883,792.962830 
	C355.810883,786.684570 355.810883,780.406250 355.810883,773.703979 
	C364.911102,774.323120 373.783508,771.882812 382.429199,776.405762 
M382.035492,788.756104 
	C378.484039,781.829773 372.673950,779.615051 364.294006,781.919006 
	C364.294006,789.516724 364.294006,797.079895 364.294006,804.604187 
	C378.153656,805.970581 384.410645,800.612183 382.035492,788.756104 
z"/>
<path fill="#0B3EC6" opacity="1.000000" stroke="none" 
	d="
M553.488525,570.819580 
	C553.933411,576.631897 555.656128,581.940918 560.420593,585.502075 
	C562.193542,586.827209 559.968262,591.372131 564.749390,590.061035 
	C559.024963,592.754761 552.879456,595.326599 546.828613,598.104431 
	C536.908203,602.658630 528.622620,609.345947 521.413574,617.584106 
	C519.375183,614.262939 517.676575,611.167114 515.978027,608.071289 
	C518.936096,603.959229 521.815857,599.788025 524.867432,595.746582 
	C532.584290,585.526489 542.236450,577.477661 553.488525,570.819580 
z"/>
<path fill="#CE1A1C" opacity="1.000000" stroke="none" 
	d="
M311.047363,788.006836 
	C311.047363,783.038025 311.047363,778.567810 311.047363,773.904663 
	C320.498962,773.904663 329.615021,773.904663 338.906281,773.904663 
	C338.906281,776.227051 338.906281,778.364624 338.906281,781.015869 
	C332.705017,781.015869 326.457764,781.015869 319.876892,781.015869 
	C319.876892,783.901550 319.876892,786.291382 319.876892,789.073059 
	C325.426819,789.073059 331.029938,789.073059 336.941101,789.073059 
	C336.941101,791.553894 336.941101,793.657043 336.941101,796.218628 
	C331.492828,796.218628 325.907471,796.218628 319.919312,796.218628 
	C319.919312,799.229858 319.919312,801.801575 319.919312,804.875122 
	C326.341431,804.875122 332.932709,804.875122 339.773499,804.875122 
	C339.773499,807.597107 339.773499,809.828369 339.773499,812.283020 
	C330.333588,812.283020 321.051605,812.283020 311.047333,812.283020 
	C311.047333,804.322021 311.047333,796.413696 311.047363,788.006836 
z"/>
<path fill="#CE1A1C" opacity="1.000000" stroke="none" 
	d="
M415.141052,789.833740 
	C415.259918,792.800659 415.157227,795.325562 415.541840,797.773926 
	C416.360107,802.983154 419.133057,805.368042 423.815613,805.265137 
	C428.561859,805.160889 431.625916,802.253235 431.854614,796.896301 
	C432.131287,790.415527 431.951843,783.915222 431.968872,777.423401 
	C431.971497,776.430664 431.969208,775.437866 431.969208,774.086609 
	C434.669189,774.086609 437.219360,774.086609 439.658905,774.086609 
	C439.658905,783.024170 440.503967,792.190063 439.417694,801.121033 
	C438.362488,809.796692 431.377655,813.699646 421.529144,813.035828 
	C412.988922,812.460083 407.735046,807.154175 406.957123,798.255005 
	C406.797913,796.433472 406.761566,794.597046 406.754425,792.767151 
	C406.730469,786.627197 406.745300,780.487061 406.745300,774.040283 
	C409.475677,774.040283 412.046814,774.040283 415.140350,774.040283 
	C415.140350,779.150940 415.140350,784.253967 415.141052,789.833740 
z"/>
<path fill="#CE1A1C" opacity="1.000000" stroke="none" 
	d="
M537.540710,801.408325 
	C539.118164,805.081909 540.508972,808.421387 542.087708,812.211975 
	C537.248840,812.652832 532.739014,813.933472 530.937439,807.479492 
	C530.618469,806.336853 527.947937,805.111023 526.422302,805.182556 
	C521.713806,805.403381 517.033936,806.233215 512.342896,806.826538 
	C511.387024,812.900635 507.282928,813.270508 501.830566,812.060852 
	C502.344360,810.627747 502.806183,809.142822 503.400635,807.713013 
	C507.664398,797.457214 512.020996,787.239441 516.190186,776.945557 
	C517.208862,774.430420 518.522522,773.350098 521.346924,773.570740 
	C523.906982,773.770874 525.914551,773.630615 527.124146,776.784241 
	C530.268616,784.982727 533.910583,792.990417 537.540710,801.408325 
M523.930542,789.657104 
	C523.193359,788.022522 522.456116,786.387939 521.499329,784.266541 
	C519.688477,788.849060 518.082092,792.914368 516.398499,797.174805 
	C520.152527,797.174805 523.428772,797.174805 526.980652,797.174805 
	C525.909302,794.597839 525.028931,792.480347 523.930542,789.657104 
z"/>
<path fill="#0C46CF" opacity="1.000000" stroke="none" 
	d="
M515.998657,607.797607 
	C517.676575,611.167114 519.375183,614.262939 521.125122,617.747681 
	C521.176453,618.136597 521.119507,618.079590 520.867920,618.220459 
	C520.446655,618.752930 520.276978,619.144409 520.107361,619.535950 
	C520.020996,619.858643 519.934631,620.181335 519.892944,620.751404 
	C519.937622,620.998779 519.973389,620.934082 519.645752,621.037659 
	C519.199402,621.617798 519.080750,622.094421 518.962158,622.570984 
	C518.297974,623.495911 517.633911,624.420776 516.822998,625.550232 
	C522.456726,626.065857 527.969666,626.570496 533.941528,627.127197 
	C526.323303,631.039551 519.274658,637.141541 509.527435,637.267761 
	C502.443695,637.359558 496.178741,635.798584 490.502136,631.596985 
	C488.922394,630.427734 487.111328,629.570984 485.189178,628.309937 
	C488.276855,627.369812 491.581940,626.691711 494.886566,626.011230 
	C496.867096,625.603394 498.846893,625.192078 500.912445,624.386292 
	C500.994629,622.490784 501.400177,620.840393 500.912537,619.519836 
	C499.373444,615.352234 500.801361,612.458496 503.688843,609.363647 
	C506.830933,605.995911 510.235474,606.153442 514.062256,606.988647 
	C514.380432,607.058167 514.726746,606.998840 515.464111,606.997803 
	C515.918640,607.172119 515.968933,607.348022 515.998657,607.797607 
z"/>
<path fill="#252BC9" opacity="1.000000" stroke="none" 
	d="
M528.616089,516.021973 
	C530.658203,519.446716 532.076050,523.025452 534.042236,526.272034 
	C536.009644,529.520691 538.524963,532.437500 540.939575,535.837036 
	C536.643616,537.441406 532.208191,538.708496 527.209473,539.747925 
	C525.754089,540.065063 524.862000,540.609863 523.969910,541.154663 
	C523.969910,541.154663 523.842224,541.255981 523.335083,541.157776 
	C514.870056,538.756897 507.006165,535.993896 498.915466,534.341370 
	C494.724701,533.485413 492.555847,531.462646 490.996338,527.997803 
	C500.434753,525.016479 509.877899,522.049927 519.308899,519.045288 
	C522.299927,518.092468 525.258667,517.038208 528.616089,516.021973 
z"/>
<path fill="#1B33C5" opacity="1.000000" stroke="none" 
	d="
M490.598511,528.011230 
	C492.555847,531.462646 494.724701,533.485413 498.915466,534.341370 
	C507.006165,535.993896 514.870056,538.756897 523.256714,541.135132 
	C517.947571,543.171204 516.504028,547.895630 515.548828,553.475281 
	C514.748230,556.494873 514.365601,559.242554 513.982971,561.990234 
	C510.619904,560.720215 507.256866,559.450134 502.624573,557.700745 
	C502.624573,566.086609 502.624573,573.733032 502.341736,581.683228 
	C501.761108,572.221130 501.664825,562.443787 501.101685,552.693359 
	C500.650421,544.879150 498.660583,542.342651 491.033600,540.706238 
	C481.011414,538.555847 470.845764,537.074219 460.375427,535.169434 
	C463.402588,534.356812 466.796082,533.679688 470.601685,532.960693 
	C477.409424,531.287415 483.805023,529.656006 490.598511,528.011230 
z"/>
<path fill="#CE1A1C" opacity="1.000000" stroke="none" 
	d="
M482.876038,782.803833 
	C475.609528,779.414734 470.122009,780.485229 466.632263,785.698425 
	C463.171875,790.867798 463.925842,797.997864 468.372650,802.157166 
	C472.851471,806.346497 478.864319,806.321899 484.725800,802.095276 
	C485.247772,801.718811 485.788269,801.367981 486.525757,800.865051 
	C488.115723,802.711121 489.621307,804.459106 491.107208,806.184326 
	C484.305847,814.523804 470.810760,815.521301 462.411377,808.435242 
	C454.186676,801.496521 453.267151,787.818909 460.475952,779.647278 
	C468.211365,770.878662 481.975647,770.438538 491.037292,778.906616 
	C489.442963,780.922424 487.830261,782.961365 486.071564,785.184875 
	C484.986633,784.366577 484.091003,783.691101 482.876038,782.803833 
z"/>
<path fill="#CE1A1C" opacity="1.000000" stroke="none" 
	d="
M557.948730,781.379272 
	C554.493225,781.359009 551.519531,781.359009 548.225830,781.359009 
	C548.225830,778.897278 548.225830,776.670410 548.225830,774.078125 
	C558.480774,774.078125 568.868164,774.078125 579.628906,774.078125 
	C579.628906,776.234741 579.628906,778.599182 579.628906,781.380005 
	C576.005066,781.380005 572.395813,781.380005 568.323975,781.380005 
	C568.323975,791.811218 568.323975,801.866455 568.323975,812.221069 
	C565.294800,812.221069 562.731201,812.221069 559.782166,812.221069 
	C559.782166,803.434082 559.850708,794.826904 559.721191,786.222717 
	C559.696899,784.608887 558.881104,783.007019 557.948730,781.379272 
z"/>
<path fill="#492AD7" opacity="1.000000" stroke="none" 
	d="
M569.371094,534.220276 
	C572.260925,523.896729 578.222778,516.421448 589.593994,514.013672 
	C593.324219,521.652954 596.678650,529.300293 599.906921,536.659851 
	C590.732910,535.959045 580.243103,535.157715 569.371094,534.220276 
z"/>
<path fill="#CE1A1C" opacity="1.000000" stroke="none" 
	d="
M594.536194,807.642090 
	C594.536377,796.260498 594.536377,785.338074 594.536377,774.076416 
	C597.374695,774.076416 599.921448,774.076416 602.758423,774.076416 
	C602.758423,786.667908 602.758423,799.336243 602.758423,812.262451 
	C600.158142,812.262451 597.717834,812.262451 594.773376,812.262451 
	C594.697083,810.925110 594.616516,809.513123 594.536194,807.642090 
z"/>
<path fill="#1331AD" opacity="1.000000" stroke="none" 
	d="
M603.239014,739.420898 
	C616.599854,738.999146 630.088196,738.843750 643.569214,739.089355 
	C647.720215,739.164917 648.057312,737.285217 648.086365,733.969788 
	C648.116272,730.559631 647.584167,728.739014 643.504211,728.917969 
	C636.359009,729.231384 629.189514,729.050842 622.031494,728.969543 
	C620.442566,728.951538 618.858765,728.486084 617.072632,727.903015 
	C627.625244,727.579346 638.377808,727.579346 649.341309,727.579346 
	C649.341309,731.969055 649.341309,735.844788 649.341309,739.841492 
	C633.820984,739.841492 618.592346,739.841492 603.239014,739.420898 
z"/>
<path fill="#1331AD" opacity="1.000000" stroke="none" 
	d="
M194.530701,678.452393 
	C195.124329,679.635376 195.937424,681.260864 195.945221,682.890076 
	C196.034729,701.588379 196.001831,720.287354 195.999939,739.448975 
	C195.423035,738.854309 194.349945,737.798401 194.346283,736.738831 
	C194.279633,717.458374 194.341553,698.177368 194.530701,678.452393 
z"/>
<path fill="#1331AD" opacity="1.000000" stroke="none" 
	d="
M513.990356,562.459839 
	C514.365601,559.242554 514.748230,556.494873 515.427063,553.852295 
	C515.747681,568.356445 515.772095,582.755371 515.738892,597.567078 
	C515.124695,596.436890 514.108887,594.900818 514.085999,593.350037 
	C513.936707,583.211609 514.002319,573.070068 513.990356,562.459839 
z"/>
<path fill="#1331AD" opacity="1.000000" stroke="none" 
	d="
M464.888855,678.455322 
	C465.328064,679.715332 465.954193,681.434082 465.960724,683.155151 
	C466.031311,701.765381 466.004517,720.376038 466.002869,739.449463 
	C465.591187,738.507385 464.829346,737.103882 464.823883,735.697449 
	C464.750397,716.770203 464.782288,697.842590 464.888855,678.455322 
z"/>
<path fill="#1331AD" opacity="1.000000" stroke="none" 
	d="
M750.413025,689.293457 
	C752.628967,688.810730 755.302979,688.162964 757.999146,688.051025 
	C762.651733,687.857788 767.333069,687.766541 771.973999,688.068665 
	C775.871094,688.322388 777.583435,687.100220 777.034241,683.064941 
	C776.811829,681.430786 776.998169,679.740967 776.999268,677.626099 
	C777.676208,680.949402 778.352356,684.723022 779.184937,689.369568 
	C769.177612,689.369568 760.029297,689.369568 750.413025,689.293457 
z"/>
<path fill="#1331AD" opacity="1.000000" stroke="none" 
	d="
M510.805908,728.560852 
	C500.449738,728.844177 490.005432,728.688354 479.299011,728.205139 
	C489.597198,727.959045 500.157471,728.040344 510.805908,728.560852 
z"/>
<path fill="#3E29D4" opacity="1.000000" stroke="none" 
	d="
M406.457581,537.980042 
	C406.980225,537.282349 407.941406,536.124207 408.935791,536.094910 
	C412.741119,535.983154 416.557129,536.234253 420.672241,536.628967 
	C416.287323,537.284729 411.599335,537.661377 406.457581,537.980042 
z"/>
<path fill="#1331AD" opacity="1.000000" stroke="none" 
	d="
M616.778076,726.617981 
	C613.525452,723.280701 614.676086,719.244446 616.449768,715.075317 
	C616.829346,718.688904 616.833191,722.421814 616.778076,726.617981 
z"/>
<path fill="#8030D8" opacity="1.000000" stroke="none" 
	d="
M594.687134,426.346558 
	C594.800720,426.890137 594.633057,427.868652 594.261780,427.953308 
	C590.309082,428.853851 586.324036,429.612610 582.134521,430.128967 
	C586.051208,428.687225 590.181213,427.526825 594.687134,426.346558 
z"/>
<path fill="#492AD7" opacity="1.000000" stroke="none" 
	d="
M632.492432,480.229279 
	C635.932739,479.018402 639.770264,477.776886 643.830078,476.826416 
	C640.331482,478.144501 636.610596,479.171600 632.492432,480.229279 
z"/>
<path fill="#492AD7" opacity="1.000000" stroke="none" 
	d="
M646.403442,476.916382 
	C648.479980,476.387207 650.958557,475.890381 653.712524,475.669220 
	C651.593811,476.279510 649.199707,476.614105 646.403442,476.916382 
z"/>
<path fill="#0B3EC6" opacity="1.000000" stroke="none" 
	d="
M558.602417,567.956543 
	C557.477539,568.951355 556.006470,569.939880 554.168945,570.879333 
	C555.287170,569.870239 556.771729,568.910278 558.602417,567.956543 
z"/>
<path fill="#0B3EC6" opacity="1.000000" stroke="none" 
	d="
M565.434204,590.112671 
	C566.543457,589.564941 568.025391,588.975464 569.742920,588.631653 
	C568.587891,589.275269 567.197388,589.673096 565.434204,590.112671 
z"/>
<path fill="#492AD7" opacity="1.000000" stroke="none" 
	d="
M619.472900,485.221802 
	C620.546631,484.529877 621.968994,483.794403 623.783691,483.103699 
	C622.724609,483.825073 621.273071,484.501678 619.472900,485.221802 
z"/>
<path fill="#492AD7" opacity="1.000000" stroke="none" 
	d="
M624.432861,483.197845 
	C625.534912,482.510162 626.991760,481.795471 628.826782,481.136505 
	C627.732483,481.851746 626.260071,482.511292 624.432861,483.197845 
z"/>
<path fill="#1B33C5" opacity="1.000000" stroke="none" 
	d="
M524.300537,541.132202 
	C524.862000,540.609863 525.754089,540.065063 526.823486,539.761108 
	C526.210938,540.371155 525.421021,540.740417 524.300537,541.132202 
z"/>
<path fill="#492AD7" opacity="1.000000" stroke="none" 
	d="
M607.367371,491.053467 
	C608.159546,490.406464 609.283875,489.717987 610.771301,489.039001 
	C609.989441,489.703003 608.844482,490.357483 607.367371,491.053467 
z"/>
<path fill="#0C46CF" opacity="1.000000" stroke="none" 
	d="
M384.567047,557.053955 
	C383.491669,557.292419 382.003418,557.459351 380.273071,557.384827 
	C381.405334,557.089722 382.779785,557.036072 384.567047,557.053955 
z"/>
<path fill="#3528CF" opacity="1.000000" stroke="none" 
	d="
M601.621704,494.366516 
	C601.984497,493.646423 602.650330,492.853760 603.658081,492.260681 
	C604.000061,492.460327 603.999023,492.921143 603.999023,492.921143 
	C603.307556,493.378754 602.616150,493.836365 601.621704,494.366516 
z"/>
<path fill="#D4181A" opacity="1.000000" stroke="none" 
	d="
M678.008545,419.001099 
	C678.619812,419.122467 679.052368,419.447998 679.484863,419.773499 
	C678.943970,419.816986 678.403015,419.860474 677.680298,419.769531 
	C677.608948,419.491821 677.719299,419.348511 678.008545,419.001099 
z"/>
<path fill="#492AD7" opacity="1.000000" stroke="none" 
	d="
M629.444031,481.261505 
	C629.887390,480.880219 630.671143,480.477112 631.824341,480.124237 
	C631.390686,480.529541 630.587524,480.884613 629.444031,481.261505 
z"/>
<path fill="#AE3AD6" opacity="1.000000" stroke="none" 
	d="
M712.982544,486.011108 
	C713.214966,486.275940 713.473694,486.517029 713.708923,486.779175 
	C713.722107,486.793884 713.541565,486.982452 713.451233,487.090118 
	C713.313049,486.854797 713.174927,486.619476 713.040100,486.167297 
	C713.043396,485.950439 713.003784,485.991882 712.982544,486.011108 
z"/>
<path fill="#492AD7" opacity="1.000000" stroke="none" 
	d="
M605.369507,492.142090 
	C605.532471,491.818542 605.992981,491.447449 606.772827,491.068146 
	C606.617065,491.404816 606.142029,491.749695 605.369507,492.142090 
z"/>
<path fill="#492AD7" opacity="1.000000" stroke="none" 
	d="
M617.382996,486.200989 
	C617.561096,485.867188 618.049316,485.494751 618.873352,485.153687 
	C618.703796,485.510803 618.198486,485.836578 617.382996,486.200989 
z"/>
<path fill="#8D32D8" opacity="1.000000" stroke="none" 
	d="
M642.648560,422.857910 
	C642.713013,423.193939 642.385254,423.486786 641.721680,423.825745 
	C641.676025,423.519470 641.966187,423.167084 642.648560,422.857910 
z"/>
<path fill="#0B3EC6" opacity="1.000000" stroke="none" 
	d="
M520.382080,619.370239 
	C520.276978,619.144409 520.446655,618.752930 520.907593,618.213989 
	C521.018188,618.445862 520.837524,618.825195 520.382080,619.370239 
z"/>
<path fill="#3E29D4" opacity="1.000000" stroke="none" 
	d="
M321.648865,513.319275 
	C321.874176,513.197510 322.276550,513.353210 322.830994,513.797058 
	C322.597382,513.922424 322.211670,513.759521 321.648865,513.319275 
z"/>
<path fill="#492AD7" opacity="1.000000" stroke="none" 
	d="
M713.952209,495.069214 
	C714.152039,495.086182 714.366394,495.077301 714.580750,495.068390 
	C714.454224,495.157501 714.327759,495.246643 714.099182,495.164124 
	C713.997070,494.992462 713.966736,495.043365 713.952209,495.069214 
z"/>
<path fill="#492AD7" opacity="1.000000" stroke="none" 
	d="
M604.255005,492.899902 
	C603.999023,492.921143 604.000061,492.460327 604.001099,492.229889 
	C604.190491,492.007080 604.378845,492.014709 604.848267,492.065063 
	C604.923218,492.364746 604.717102,492.621735 604.255005,492.899902 
z"/>
<path fill="#FFFFFF" opacity="1.000000" stroke="none" 
	d="
M698.983948,363.016388 
	C699.334045,363.401306 699.684143,363.786255 700.034241,364.171173 
	C699.828796,364.329803 699.623413,364.488403 699.418030,364.647034 
	C699.116943,364.196869 698.815918,363.746704 698.769714,363.125977 
	C699.024597,362.955414 698.983948,363.016388 698.983948,363.016388 
z"/>
<path fill="#FFFFFF" opacity="1.000000" stroke="none" 
	d="
M699.038696,362.921600 
	C698.452942,362.859497 697.853088,362.831207 697.040527,362.496033 
	C696.959167,362.053070 697.090515,361.917023 697.429565,361.587646 
	C698.047546,361.756500 698.457764,362.118713 698.925964,362.748657 
	C698.983948,363.016388 699.024597,362.955414 699.038696,362.921600 
z"/>
<path fill="#3E29D4" opacity="1.000000" stroke="none" 
	d="
M510.075073,481.403229 
	C514.760559,479.365570 519.504395,477.673096 524.634949,475.963440 
	C522.302185,479.901276 513.861694,483.190613 510.075073,481.403229 
z"/>
<path fill="#3E29D4" opacity="1.000000" stroke="none" 
	d="
M499.244629,486.099365 
	C501.352203,484.959259 503.782410,483.955475 506.586243,482.906738 
	C504.495667,483.986420 502.031464,485.111053 499.244629,486.099365 
z"/>
<path fill="#AE3AD6" opacity="1.000000" stroke="none" 
	d="
M640.014404,450.436707 
	C640.495605,450.264557 641.202271,450.288422 641.942505,450.611603 
	C641.397339,450.818207 640.818604,450.725494 640.014404,450.436707 
z"/>
<path fill="#FFFFFF" opacity="1.000000" stroke="none" 
	d="
M519.301636,622.378784 
	C519.080750,622.094421 519.199402,621.617798 519.682495,621.041260 
	C519.911621,621.356384 519.776367,621.771423 519.301636,622.378784 
z"/>
<path fill="#FDF9F9" opacity="1.000000" stroke="none" 
	d="
M696.505920,715.144897 
	C691.933472,715.147888 687.806396,715.147888 682.932068,715.147888 
	C685.789429,708.141846 688.476013,701.554382 691.530396,694.065125 
	C694.506226,701.398987 697.141907,707.894775 699.977966,714.884155 
	C698.722778,714.991089 697.836975,715.066528 696.505920,715.144897 
z"/>
<path fill="#FDF9F9" opacity="1.000000" stroke="none" 
	d="
M296.819763,713.677551 
	C299.392059,707.175537 301.846985,701.041992 304.623138,694.105835 
	C307.531189,701.310425 310.194489,707.908569 313.331024,715.679199 
	C307.252045,715.082092 301.977234,714.564026 296.819763,713.677551 
z"/>
<path fill="#FFFFFF" opacity="1.000000" stroke="none" 
	d="
M379.289062,707.639099 
	C373.745300,708.372620 368.549072,708.905396 363.055969,709.468567 
	C363.055969,702.478271 363.055969,696.411499 363.055969,689.830750 
	C366.819733,689.830750 370.424744,689.816467 374.029602,689.834290 
	C378.615570,689.856934 382.385803,691.586731 383.656616,696.176880 
	C384.881073,700.599670 384.114868,704.808289 379.289062,707.639099 
z"/>
<path fill="#FDF9F9" opacity="1.000000" stroke="none" 
	d="
M638.145996,780.750549 
	C646.622070,781.557129 651.660156,787.391602 650.621033,794.689392 
	C649.682678,801.279114 644.703247,805.625061 638.368958,805.382996 
	C632.351746,805.153015 627.618896,800.419495 627.125671,794.138062 
	C626.595215,787.382751 630.621887,782.307556 638.145996,780.750549 
z"/>
<path fill="#FDF9F9" opacity="1.000000" stroke="none" 
	d="
M382.149658,789.131348 
	C384.410645,800.612183 378.153656,805.970581 364.294006,804.604187 
	C364.294006,797.079895 364.294006,789.516724 364.294006,781.919006 
	C372.673950,779.615051 378.484039,781.829773 382.149658,789.131348 
z"/>
<path fill="#FDF9F9" opacity="1.000000" stroke="none" 
	d="
M524.039551,790.009949 
	C525.028931,792.480347 525.909302,794.597839 526.980652,797.174805 
	C523.428772,797.174805 520.152527,797.174805 516.398499,797.174805 
	C518.082092,792.914368 519.688477,788.849060 521.499329,784.266541 
	C522.456116,786.387939 523.193359,788.022522 524.039551,790.009949 
z"/>
</svg>